<svg width="1440" height="236" viewBox="0 0 1440 236" fill="none" xmlns="http://www.w3.org/2000/svg">
<rect width="1440" height="236" fill="#0E0E0E"/>
<path d="M630.296 162.158C630.296 162.422 630.182 162.554 629.954 162.554H623.924V162.806C623.924 163.874 624.134 164.63 624.554 165.074C624.974 165.518 625.598 165.74 626.426 165.74C626.954 165.74 627.512 165.722 628.1 165.686C628.7 165.65 629.21 165.602 629.63 165.542H629.72C629.792 165.542 629.858 165.56 629.918 165.596C629.978 165.632 630.008 165.698 630.008 165.794V166.406C630.008 166.526 629.984 166.622 629.936 166.694C629.888 166.754 629.792 166.796 629.648 166.82C629.132 166.916 628.616 166.988 628.1 167.036C627.596 167.096 627.038 167.126 626.426 167.126C625.91 167.126 625.406 167.06 624.914 166.928C624.422 166.784 623.984 166.55 623.6 166.226C623.228 165.89 622.922 165.446 622.682 164.894C622.454 164.342 622.34 163.646 622.34 162.806V161.186C622.34 159.89 622.682 158.864 623.366 158.108C624.05 157.352 625.04 156.974 626.336 156.974C626.996 156.974 627.572 157.076 628.064 157.28C628.556 157.472 628.964 157.754 629.288 158.126C629.624 158.486 629.876 158.93 630.044 159.458C630.212 159.974 630.296 160.55 630.296 161.186V162.158ZM628.694 161.186C628.694 160.166 628.496 159.44 628.1 159.008C627.716 158.576 627.128 158.36 626.336 158.36C625.556 158.36 624.956 158.588 624.536 159.044C624.128 159.5 623.924 160.214 623.924 161.186V161.348H628.694V161.186ZM639.385 166.406C639.385 166.526 639.361 166.622 639.313 166.694C639.277 166.754 639.175 166.796 639.007 166.82C638.443 166.928 637.885 167.006 637.333 167.054C636.793 167.102 636.247 167.126 635.695 167.126C635.023 167.126 634.441 167.024 633.949 166.82C633.457 166.604 633.049 166.304 632.725 165.92C632.401 165.536 632.161 165.068 632.005 164.516C631.849 163.964 631.771 163.352 631.771 162.68V161.384C631.771 159.968 632.095 158.882 632.743 158.126C633.391 157.358 634.375 156.974 635.695 156.974C635.971 156.974 636.301 156.992 636.685 157.028C637.081 157.052 637.453 157.094 637.801 157.154V153.806C637.801 153.71 637.831 153.632 637.891 153.572C637.963 153.5 638.047 153.464 638.143 153.464H639.061C639.157 153.464 639.235 153.5 639.295 153.572C639.355 153.632 639.385 153.71 639.385 153.806V166.406ZM637.801 158.486C637.501 158.426 637.147 158.39 636.739 158.378C636.331 158.366 635.983 158.36 635.695 158.36C635.251 158.36 634.879 158.426 634.579 158.558C634.279 158.69 634.039 158.888 633.859 159.152C633.679 159.404 633.547 159.722 633.463 160.106C633.391 160.478 633.355 160.904 633.355 161.384V162.68C633.355 163.664 633.523 164.42 633.859 164.948C634.195 165.476 634.807 165.74 635.695 165.74C636.007 165.74 636.355 165.728 636.739 165.704C637.135 165.68 637.489 165.656 637.801 165.632V158.486ZM649.051 166.64C649.051 166.736 649.015 166.82 648.943 166.892C648.883 166.964 648.805 167 648.709 167H647.809C647.713 167 647.629 166.964 647.557 166.892C647.497 166.82 647.467 166.736 647.467 166.64V166.298C646.963 166.574 646.495 166.784 646.063 166.928C645.631 167.06 645.145 167.126 644.605 167.126C643.513 167.126 642.715 166.802 642.211 166.154C641.719 165.506 641.473 164.582 641.473 163.382V157.46C641.473 157.364 641.509 157.28 641.581 157.208C641.653 157.136 641.737 157.1 641.833 157.1H642.697C642.793 157.1 642.877 157.136 642.949 157.208C643.021 157.28 643.057 157.364 643.057 157.46V163.382C643.057 163.838 643.093 164.222 643.165 164.534C643.249 164.834 643.369 165.074 643.525 165.254C643.693 165.434 643.897 165.566 644.137 165.65C644.389 165.722 644.689 165.758 645.037 165.758C645.421 165.758 645.817 165.692 646.225 165.56C646.633 165.428 647.047 165.26 647.467 165.056V157.46C647.467 157.364 647.503 157.28 647.575 157.208C647.647 157.136 647.731 157.1 647.827 157.1H648.709C648.805 157.1 648.883 157.136 648.943 157.208C649.015 157.28 649.051 157.364 649.051 157.46V166.64ZM656.317 154.292C656.317 154.472 656.209 154.562 655.993 154.562H655.129C654.709 154.562 654.421 154.646 654.265 154.814C654.109 154.982 654.031 155.312 654.031 155.804V157.1H655.921C656.017 157.1 656.095 157.13 656.155 157.19C656.227 157.25 656.263 157.328 656.263 157.424V158.126C656.263 158.33 656.149 158.432 655.921 158.432H654.031V166.64C654.031 166.736 653.995 166.82 653.923 166.892C653.863 166.964 653.785 167 653.689 167H652.807C652.711 167 652.627 166.964 652.555 166.892C652.483 166.82 652.447 166.736 652.447 166.64V158.432L650.701 158.234C650.473 158.21 650.359 158.102 650.359 157.91V157.424C650.359 157.328 650.389 157.25 650.449 157.19C650.521 157.13 650.605 157.1 650.701 157.1H652.447V155.804C652.447 155.324 652.501 154.922 652.609 154.598C652.729 154.274 652.897 154.016 653.113 153.824C653.329 153.632 653.593 153.5 653.905 153.428C654.217 153.344 654.571 153.302 654.967 153.302C655.207 153.302 655.405 153.314 655.561 153.338C655.717 153.362 655.855 153.386 655.975 153.41C656.203 153.47 656.317 153.566 656.317 153.698V154.292ZM665.206 166.64C665.206 166.736 665.17 166.82 665.098 166.892C665.038 166.964 664.96 167 664.864 167H663.964C663.868 167 663.784 166.964 663.712 166.892C663.652 166.82 663.622 166.736 663.622 166.64V166.298C663.118 166.574 662.65 166.784 662.218 166.928C661.786 167.06 661.3 167.126 660.76 167.126C659.668 167.126 658.87 166.802 658.366 166.154C657.874 165.506 657.628 164.582 657.628 163.382V157.46C657.628 157.364 657.664 157.28 657.736 157.208C657.808 157.136 657.892 157.1 657.988 157.1H658.852C658.948 157.1 659.032 157.136 659.104 157.208C659.176 157.28 659.212 157.364 659.212 157.46V163.382C659.212 163.838 659.248 164.222 659.32 164.534C659.404 164.834 659.524 165.074 659.68 165.254C659.848 165.434 660.052 165.566 660.292 165.65C660.544 165.722 660.844 165.758 661.192 165.758C661.576 165.758 661.972 165.692 662.38 165.56C662.788 165.428 663.202 165.26 663.622 165.056V157.46C663.622 157.364 663.658 157.28 663.73 157.208C663.802 157.136 663.886 157.1 663.982 157.1H664.864C664.96 157.1 665.038 157.136 665.098 157.208C665.17 157.28 665.206 157.364 665.206 157.46V166.64ZM674.92 162.158C674.92 162.422 674.806 162.554 674.578 162.554H668.548V162.806C668.548 163.874 668.758 164.63 669.178 165.074C669.598 165.518 670.222 165.74 671.05 165.74C671.578 165.74 672.136 165.722 672.724 165.686C673.324 165.65 673.834 165.602 674.254 165.542H674.344C674.416 165.542 674.482 165.56 674.542 165.596C674.602 165.632 674.632 165.698 674.632 165.794V166.406C674.632 166.526 674.608 166.622 674.56 166.694C674.512 166.754 674.416 166.796 674.272 166.82C673.756 166.916 673.24 166.988 672.724 167.036C672.22 167.096 671.662 167.126 671.05 167.126C670.534 167.126 670.03 167.06 669.538 166.928C669.046 166.784 668.608 166.55 668.224 166.226C667.852 165.89 667.546 165.446 667.306 164.894C667.078 164.342 666.964 163.646 666.964 162.806V161.186C666.964 159.89 667.306 158.864 667.99 158.108C668.674 157.352 669.664 156.974 670.96 156.974C671.62 156.974 672.196 157.076 672.688 157.28C673.18 157.472 673.588 157.754 673.912 158.126C674.248 158.486 674.5 158.93 674.668 159.458C674.836 159.974 674.92 160.55 674.92 161.186V162.158ZM673.318 161.186C673.318 160.166 673.12 159.44 672.724 159.008C672.34 158.576 671.752 158.36 670.96 158.36C670.18 158.36 669.58 158.588 669.16 159.044C668.752 159.5 668.548 160.214 668.548 161.186V161.348H673.318V161.186ZM684.297 166.64C684.297 166.736 684.261 166.82 684.189 166.892C684.117 166.964 684.033 167 683.937 167H683.073C682.977 167 682.893 166.964 682.821 166.892C682.749 166.82 682.713 166.736 682.713 166.64V160.718C682.713 160.262 682.671 159.884 682.587 159.584C682.515 159.272 682.395 159.026 682.227 158.846C682.071 158.666 681.867 158.54 681.615 158.468C681.363 158.384 681.069 158.342 680.733 158.342C680.349 158.342 679.953 158.408 679.545 158.54C679.137 158.672 678.723 158.84 678.303 159.044V166.64C678.303 166.736 678.267 166.82 678.195 166.892C678.123 166.964 678.039 167 677.943 167H677.061C676.965 167 676.881 166.964 676.809 166.892C676.749 166.82 676.719 166.736 676.719 166.64V157.46C676.719 157.364 676.749 157.28 676.809 157.208C676.881 157.136 676.965 157.1 677.061 157.1H677.961C678.057 157.1 678.135 157.136 678.195 157.208C678.267 157.28 678.303 157.364 678.303 157.46V157.802C678.807 157.526 679.275 157.322 679.707 157.19C680.139 157.046 680.625 156.974 681.165 156.974C682.257 156.974 683.049 157.298 683.541 157.946C684.045 158.594 684.297 159.518 684.297 160.718V166.64ZM691.283 166.73C691.283 166.898 691.175 167 690.959 167.036C690.779 167.06 690.581 167.078 690.365 167.09C690.149 167.114 689.957 167.126 689.789 167.126C689.369 167.126 689.003 167.09 688.691 167.018C688.391 166.958 688.139 166.838 687.935 166.658C687.743 166.478 687.593 166.232 687.485 165.92C687.389 165.608 687.341 165.206 687.341 164.714V158.432L685.595 158.234C685.367 158.21 685.253 158.102 685.253 157.91V157.424C685.253 157.208 685.367 157.1 685.595 157.1H687.341V155.336C687.341 155.132 687.449 155.012 687.665 154.976L688.601 154.832H688.655C688.727 154.832 688.787 154.862 688.835 154.922C688.895 154.97 688.925 155.042 688.925 155.138V157.1H690.869C690.965 157.1 691.049 157.136 691.121 157.208C691.193 157.28 691.229 157.364 691.229 157.46V158.072C691.229 158.168 691.193 158.252 691.121 158.324C691.049 158.396 690.965 158.432 690.869 158.432H688.925V164.714C688.925 165.206 688.997 165.518 689.141 165.65C689.285 165.782 689.537 165.848 689.897 165.848H690.905C691.157 165.848 691.283 165.932 691.283 166.1V166.73ZM700.225 162.158C700.225 162.422 700.111 162.554 699.883 162.554H693.853V162.806C693.853 163.874 694.063 164.63 694.483 165.074C694.903 165.518 695.527 165.74 696.355 165.74C696.883 165.74 697.441 165.722 698.029 165.686C698.629 165.65 699.139 165.602 699.559 165.542H699.649C699.721 165.542 699.787 165.56 699.847 165.596C699.907 165.632 699.937 165.698 699.937 165.794V166.406C699.937 166.526 699.913 166.622 699.865 166.694C699.817 166.754 699.721 166.796 699.577 166.82C699.061 166.916 698.545 166.988 698.029 167.036C697.525 167.096 696.967 167.126 696.355 167.126C695.839 167.126 695.335 167.06 694.843 166.928C694.351 166.784 693.913 166.55 693.529 166.226C693.157 165.89 692.851 165.446 692.611 164.894C692.383 164.342 692.269 163.646 692.269 162.806V161.186C692.269 159.89 692.611 158.864 693.295 158.108C693.979 157.352 694.969 156.974 696.265 156.974C696.925 156.974 697.501 157.076 697.993 157.28C698.485 157.472 698.893 157.754 699.217 158.126C699.553 158.486 699.805 158.93 699.973 159.458C700.141 159.974 700.225 160.55 700.225 161.186V162.158ZM698.623 161.186C698.623 160.166 698.425 159.44 698.029 159.008C697.645 158.576 697.057 158.36 696.265 158.36C695.485 158.36 694.885 158.588 694.465 159.044C694.057 159.5 693.853 160.214 693.853 161.186V161.348H698.623V161.186ZM708.288 164.516C708.288 164.972 708.204 165.368 708.036 165.704C707.88 166.028 707.652 166.298 707.352 166.514C707.064 166.718 706.71 166.874 706.29 166.982C705.882 167.078 705.426 167.126 704.922 167.126C704.754 167.126 704.55 167.12 704.31 167.108C704.082 167.108 703.836 167.096 703.572 167.072C703.32 167.048 703.062 167.024 702.798 167C702.534 166.964 702.294 166.916 702.078 166.856C701.826 166.796 701.7 166.676 701.7 166.496V165.866C701.7 165.782 701.73 165.716 701.79 165.668C701.85 165.62 701.928 165.596 702.024 165.596H702.096C702.312 165.62 702.546 165.644 702.798 165.668C703.062 165.692 703.326 165.716 703.59 165.74C703.854 165.752 704.1 165.764 704.328 165.776C704.556 165.788 704.754 165.794 704.922 165.794C705.51 165.794 705.954 165.704 706.254 165.524C706.554 165.344 706.704 165.008 706.704 164.516C706.704 164.24 706.608 164 706.416 163.796C706.224 163.592 705.87 163.334 705.354 163.022L703.536 161.942C702.984 161.606 702.54 161.24 702.204 160.844C701.868 160.436 701.7 159.944 701.7 159.368C701.7 158.9 701.784 158.516 701.952 158.216C702.12 157.904 702.348 157.658 702.636 157.478C702.924 157.286 703.266 157.154 703.662 157.082C704.058 157.01 704.49 156.974 704.958 156.974C705.462 156.974 705.948 156.998 706.416 157.046C706.896 157.082 707.346 157.136 707.766 157.208C707.994 157.244 708.108 157.364 708.108 157.568V158.162C708.108 158.366 708.006 158.468 707.802 158.468H707.748C707.436 158.444 707.016 158.414 706.488 158.378C705.972 158.342 705.462 158.324 704.958 158.324C704.454 158.324 704.046 158.384 703.734 158.504C703.434 158.624 703.284 158.912 703.284 159.368C703.284 159.644 703.386 159.884 703.59 160.088C703.794 160.28 704.106 160.496 704.526 160.736L706.308 161.798C707.052 162.242 707.568 162.674 707.856 163.094C708.144 163.514 708.288 163.988 708.288 164.516ZM718.419 154.76C718.419 155.048 718.341 155.36 718.185 155.696L713.001 166.73C712.905 166.91 712.773 167 712.605 167H711.525C711.429 167 711.357 166.976 711.309 166.928C711.273 166.868 711.255 166.802 711.255 166.73C711.255 166.67 711.273 166.604 711.309 166.532L716.745 155.228C716.757 155.216 716.763 155.192 716.763 155.156C716.763 155.072 716.721 155.03 716.637 155.03H710.499C710.403 155.03 710.319 155.006 710.247 154.958C710.175 154.898 710.139 154.82 710.139 154.724V153.968C710.139 153.872 710.175 153.794 710.247 153.734C710.319 153.662 710.403 153.626 710.499 153.626H717.069C717.573 153.626 717.921 153.74 718.113 153.968C718.317 154.184 718.419 154.448 718.419 154.76ZM729.029 161.762C729.029 162.722 728.927 163.544 728.723 164.228C728.531 164.9 728.237 165.452 727.841 165.884C727.445 166.316 726.953 166.634 726.365 166.838C725.777 167.03 725.099 167.126 724.331 167.126C723.611 167.126 723.005 167.096 722.513 167.036C722.033 166.976 721.607 166.904 721.235 166.82C721.115 166.796 721.013 166.76 720.929 166.712C720.845 166.664 720.803 166.586 720.803 166.478V165.776C720.803 165.668 720.833 165.59 720.893 165.542C720.953 165.482 721.031 165.452 721.127 165.452C721.151 165.452 721.169 165.458 721.181 165.47C721.193 165.47 721.211 165.47 721.235 165.47C721.691 165.566 722.171 165.638 722.675 165.686C723.191 165.734 723.737 165.758 724.313 165.758C725.009 165.758 725.561 165.662 725.969 165.47C726.377 165.266 726.689 164.99 726.905 164.642C727.121 164.294 727.259 163.874 727.319 163.382C727.379 162.89 727.409 162.35 727.409 161.762V161.564C727.025 161.648 726.611 161.732 726.167 161.816C725.735 161.888 725.243 161.924 724.691 161.924C724.103 161.924 723.539 161.864 722.999 161.744C722.471 161.624 722.003 161.42 721.595 161.132C721.187 160.844 720.863 160.46 720.623 159.98C720.383 159.488 720.263 158.882 720.263 158.162V158.054C720.263 156.626 720.623 155.51 721.343 154.706C722.075 153.902 723.179 153.5 724.655 153.5C725.327 153.5 725.933 153.602 726.473 153.806C727.013 154.01 727.469 154.322 727.841 154.742C728.225 155.15 728.519 155.678 728.723 156.326C728.927 156.974 729.029 157.736 729.029 158.612V161.762ZM727.409 158.612C727.409 157.88 727.349 157.274 727.229 156.794C727.109 156.302 726.929 155.912 726.689 155.624C726.461 155.336 726.173 155.132 725.825 155.012C725.489 154.892 725.105 154.832 724.673 154.832C724.253 154.832 723.869 154.886 723.521 154.994C723.173 155.102 722.879 155.282 722.639 155.534C722.399 155.786 722.213 156.116 722.081 156.524C721.949 156.932 721.883 157.442 721.883 158.054V158.162C721.883 158.654 721.961 159.062 722.117 159.386C722.273 159.698 722.483 159.95 722.747 160.142C723.011 160.322 723.305 160.454 723.629 160.538C723.965 160.61 724.313 160.646 724.673 160.646C724.889 160.646 725.123 160.64 725.375 160.628C725.627 160.604 725.873 160.58 726.113 160.556C726.365 160.52 726.599 160.484 726.815 160.448C727.031 160.4 727.223 160.358 727.391 160.322L727.409 158.612ZM743.005 160.412C743.005 161.54 742.861 162.464 742.573 163.184C742.285 163.892 741.865 164.456 741.313 164.876C740.749 165.296 740.059 165.596 739.243 165.776C738.439 165.944 737.509 166.028 736.453 166.028C735.553 166.028 734.845 165.812 734.329 165.38C733.813 164.936 733.555 164.318 733.555 163.526C733.555 163.466 733.555 163.412 733.555 163.364C733.555 163.316 733.561 163.262 733.573 163.202L733.771 161.096C733.867 160.172 734.191 159.464 734.743 158.972C735.307 158.48 736.075 158.234 737.047 158.234C737.431 158.234 737.821 158.264 738.217 158.324C738.625 158.372 739.003 158.432 739.351 158.504C739.471 158.528 739.561 158.564 739.621 158.612C739.693 158.66 739.729 158.75 739.729 158.882V158.954L739.189 164.588C739.753 164.504 740.203 164.348 740.539 164.12C740.887 163.88 741.157 163.58 741.349 163.22C741.541 162.86 741.667 162.446 741.727 161.978C741.787 161.498 741.817 160.976 741.817 160.412C741.817 159.848 741.727 159.314 741.547 158.81C741.367 158.294 741.091 157.85 740.719 157.478C740.347 157.094 739.885 156.794 739.333 156.578C738.781 156.35 738.133 156.236 737.389 156.236C736.597 156.236 735.889 156.35 735.265 156.578C734.641 156.794 734.107 157.1 733.663 157.496C733.219 157.892 732.865 158.372 732.601 158.936C732.337 159.5 732.169 160.124 732.097 160.808L731.827 163.544C731.815 163.64 731.803 163.736 731.791 163.832C731.791 163.928 731.791 164.024 731.791 164.12C731.791 164.66 731.881 165.164 732.061 165.632C732.253 166.1 732.535 166.508 732.907 166.856C733.279 167.192 733.747 167.456 734.311 167.648C734.887 167.852 735.559 167.954 736.327 167.954C736.759 167.954 737.191 167.942 737.623 167.918C738.055 167.894 738.487 167.864 738.919 167.828H738.937C739.009 167.828 739.057 167.852 739.081 167.9C739.093 167.924 739.099 167.942 739.099 167.954V168.53C739.099 168.626 739.075 168.686 739.027 168.71C738.979 168.746 738.907 168.77 738.811 168.782C738.571 168.806 738.229 168.836 737.785 168.872C737.341 168.908 736.849 168.926 736.309 168.926C735.445 168.926 734.665 168.806 733.969 168.566C733.273 168.338 732.673 168.014 732.169 167.594C731.677 167.174 731.299 166.67 731.035 166.082C730.771 165.482 730.639 164.822 730.639 164.102C730.639 164.006 730.639 163.916 730.639 163.832C730.639 163.736 730.645 163.64 730.657 163.544L730.927 160.736C730.999 159.92 731.197 159.176 731.521 158.504C731.857 157.82 732.301 157.232 732.853 156.74C733.405 156.248 734.065 155.87 734.833 155.606C735.613 155.33 736.483 155.192 737.443 155.192C738.367 155.192 739.177 155.342 739.873 155.642C740.569 155.93 741.145 156.32 741.601 156.812C742.069 157.292 742.417 157.844 742.645 158.468C742.885 159.092 743.005 159.74 743.005 160.412ZM738.127 159.638C737.935 159.614 737.731 159.59 737.515 159.566C737.311 159.542 737.107 159.53 736.903 159.53C736.363 159.53 735.967 159.662 735.715 159.926C735.475 160.19 735.325 160.592 735.265 161.132L735.067 163.184C735.055 163.244 735.049 163.298 735.049 163.346C735.049 163.394 735.049 163.442 735.049 163.49C735.049 163.91 735.163 164.222 735.391 164.426C735.619 164.63 735.997 164.732 736.525 164.732H736.903C737.035 164.732 737.161 164.732 737.281 164.732C737.413 164.732 737.545 164.72 737.677 164.696L738.127 159.638ZM752.754 157.964C752.754 158.084 752.724 158.168 752.664 158.216C752.604 158.252 752.526 158.282 752.43 158.306L751.782 158.432C751.95 158.6 752.094 158.828 752.214 159.116C752.334 159.404 752.394 159.794 752.394 160.286V160.43C752.394 161.426 752.076 162.188 751.44 162.716C750.804 163.244 749.79 163.508 748.398 163.508C747.918 163.508 747.516 163.478 747.192 163.418C746.868 163.346 746.574 163.256 746.31 163.148C746.01 163.292 745.86 163.496 745.86 163.76C745.86 163.916 745.902 164.036 745.986 164.12C746.07 164.204 746.214 164.276 746.418 164.336L749.1 165.02C749.544 165.128 749.97 165.248 750.378 165.38C750.798 165.512 751.17 165.68 751.494 165.884C751.818 166.076 752.076 166.316 752.268 166.604C752.46 166.892 752.556 167.246 752.556 167.666V167.81C752.556 168.674 752.238 169.352 751.602 169.844C750.978 170.348 749.928 170.6 748.452 170.6C747.024 170.6 745.974 170.342 745.302 169.826C744.642 169.322 744.312 168.626 744.312 167.738V167.576C744.312 167.072 744.426 166.622 744.654 166.226C744.882 165.83 745.146 165.518 745.446 165.29L745.32 165.236C745.032 165.104 744.822 164.906 744.69 164.642C744.558 164.378 744.492 164.108 744.492 163.832V163.814C744.492 163.574 744.552 163.334 744.672 163.094C744.792 162.854 744.978 162.662 745.23 162.518C744.954 162.254 744.744 161.954 744.6 161.618C744.468 161.282 744.402 160.886 744.402 160.43V160.286C744.402 159.89 744.462 159.5 744.582 159.116C744.714 158.732 744.93 158.39 745.23 158.09C745.542 157.79 745.95 157.55 746.454 157.37C746.97 157.19 747.618 157.1 748.398 157.1H752.34C752.448 157.1 752.544 157.142 752.628 157.226C752.712 157.298 752.754 157.388 752.754 157.496V157.964ZM750.828 160.286C750.828 160.022 750.792 159.77 750.72 159.53C750.648 159.29 750.522 159.086 750.342 158.918C750.162 158.75 749.91 158.618 749.586 158.522C749.274 158.414 748.878 158.36 748.398 158.36C747.894 158.36 747.48 158.414 747.156 158.522C746.844 158.63 746.598 158.774 746.418 158.954C746.25 159.122 746.13 159.326 746.058 159.566C745.998 159.794 745.968 160.034 745.968 160.286V160.43C745.968 160.634 745.998 160.844 746.058 161.06C746.118 161.276 746.232 161.474 746.4 161.654C746.58 161.834 746.826 161.984 747.138 162.104C747.462 162.212 747.882 162.266 748.398 162.266C748.878 162.266 749.274 162.224 749.586 162.14C749.91 162.044 750.162 161.918 750.342 161.762C750.522 161.594 750.648 161.402 750.72 161.186C750.792 160.958 750.828 160.706 750.828 160.43V160.286ZM750.972 167.666C750.972 167.318 750.804 167.048 750.468 166.856C750.144 166.664 749.58 166.466 748.776 166.262L746.742 165.74C746.478 165.968 746.262 166.214 746.094 166.478C745.938 166.742 745.86 167.108 745.86 167.576V167.738C745.86 167.99 745.902 168.218 745.986 168.422C746.07 168.626 746.208 168.794 746.4 168.926C746.604 169.07 746.868 169.178 747.192 169.25C747.528 169.334 747.948 169.376 748.452 169.376C748.968 169.376 749.388 169.34 749.712 169.268C750.036 169.196 750.288 169.094 750.468 168.962C750.66 168.83 750.792 168.668 750.864 168.476C750.936 168.284 750.972 168.062 750.972 167.81V167.666ZM766.175 166.64C766.175 166.736 766.139 166.82 766.067 166.892C765.995 166.964 765.911 167 765.815 167H764.951C764.855 167 764.771 166.964 764.699 166.892C764.627 166.82 764.591 166.736 764.591 166.64V160.268C764.591 159.896 764.549 159.584 764.465 159.332C764.381 159.08 764.267 158.882 764.123 158.738C763.979 158.594 763.805 158.492 763.601 158.432C763.397 158.372 763.181 158.342 762.953 158.342C762.629 158.342 762.281 158.39 761.909 158.486C761.549 158.582 761.195 158.696 760.847 158.828C760.955 159.224 761.009 159.692 761.009 160.232V166.64C761.009 166.736 760.979 166.82 760.919 166.892C760.859 166.964 760.781 167 760.685 167H759.731C759.635 167 759.557 166.964 759.497 166.892C759.449 166.82 759.425 166.736 759.425 166.64V160.232C759.425 159.836 759.395 159.518 759.335 159.278C759.287 159.026 759.203 158.834 759.083 158.702C758.963 158.558 758.813 158.462 758.633 158.414C758.465 158.366 758.267 158.342 758.039 158.342C757.715 158.342 757.361 158.414 756.977 158.558C756.605 158.69 756.227 158.852 755.843 159.044V166.64C755.843 166.736 755.813 166.82 755.753 166.892C755.693 166.964 755.615 167 755.519 167H754.565C754.469 167 754.391 166.964 754.331 166.892C754.283 166.82 754.259 166.736 754.259 166.64V157.46C754.259 157.364 754.289 157.28 754.349 157.208C754.421 157.136 754.505 157.1 754.601 157.1H755.501C755.597 157.1 755.675 157.136 755.735 157.208C755.807 157.28 755.843 157.364 755.843 157.46V157.802C756.203 157.574 756.605 157.376 757.049 157.208C757.493 157.04 757.967 156.956 758.471 156.956C758.855 156.956 759.191 157.016 759.479 157.136C759.779 157.244 760.043 157.43 760.271 157.694C760.775 157.454 761.279 157.274 761.783 157.154C762.299 157.022 762.791 156.956 763.259 156.956C763.667 156.956 764.045 157.01 764.393 157.118C764.753 157.226 765.065 157.412 765.329 157.676C765.593 157.928 765.797 158.27 765.941 158.702C766.097 159.122 766.175 159.644 766.175 160.268V166.64ZM775.154 166.64C775.154 166.736 775.118 166.82 775.046 166.892C774.974 166.964 774.89 167 774.794 167H773.966C773.87 167 773.786 166.964 773.714 166.892C773.642 166.82 773.606 166.736 773.606 166.64V166.244C773.174 166.496 772.73 166.706 772.274 166.874C771.818 167.042 771.338 167.126 770.834 167.126C770.45 167.126 770.078 167.084 769.718 167C769.37 166.904 769.058 166.742 768.782 166.514C768.518 166.286 768.302 165.986 768.134 165.614C767.978 165.242 767.9 164.774 767.9 164.21V163.994C767.9 163.514 767.972 163.094 768.116 162.734C768.272 162.362 768.518 162.056 768.854 161.816C769.202 161.564 769.652 161.378 770.204 161.258C770.756 161.138 771.434 161.078 772.238 161.078H773.57V160.358C773.57 159.602 773.426 159.074 773.138 158.774C772.85 158.474 772.352 158.324 771.644 158.324C771.056 158.324 770.54 158.342 770.096 158.378C769.652 158.402 769.25 158.432 768.89 158.468H768.8C768.716 158.468 768.638 158.45 768.566 158.414C768.506 158.378 768.476 158.3 768.476 158.18V157.55C768.476 157.358 768.602 157.244 768.854 157.208C769.226 157.148 769.628 157.094 770.06 157.046C770.504 156.998 771.032 156.974 771.644 156.974C772.892 156.974 773.786 157.274 774.326 157.874C774.878 158.474 775.154 159.302 775.154 160.358V166.64ZM773.57 162.212H772.238C771.698 162.212 771.248 162.248 770.888 162.32C770.528 162.38 770.246 162.482 770.042 162.626C769.838 162.758 769.694 162.938 769.61 163.166C769.526 163.382 769.484 163.652 769.484 163.976V164.192C769.484 164.84 769.628 165.278 769.916 165.506C770.204 165.722 770.612 165.83 771.14 165.83C771.56 165.83 771.962 165.77 772.346 165.65C772.73 165.53 773.138 165.35 773.57 165.11V162.212ZM779.052 155.156C779.052 155.252 779.016 155.336 778.944 155.408C778.872 155.48 778.788 155.516 778.692 155.516H777.774C777.678 155.516 777.594 155.48 777.522 155.408C777.45 155.336 777.414 155.252 777.414 155.156V153.716C777.414 153.62 777.45 153.536 777.522 153.464C777.594 153.392 777.678 153.356 777.774 153.356H778.692C778.788 153.356 778.872 153.392 778.944 153.464C779.016 153.536 779.052 153.62 779.052 153.716V155.156ZM779.016 166.64C779.016 166.736 778.98 166.82 778.908 166.892C778.836 166.964 778.752 167 778.656 167H777.792C777.696 167 777.612 166.964 777.54 166.892C777.468 166.82 777.432 166.736 777.432 166.64V157.46C777.432 157.364 777.468 157.28 777.54 157.208C777.612 157.136 777.696 157.1 777.792 157.1H778.656C778.752 157.1 778.836 157.136 778.908 157.208C778.98 157.28 779.016 157.364 779.016 157.46V166.64ZM783.086 166.64C783.086 166.736 783.056 166.82 782.996 166.892C782.936 166.964 782.858 167 782.762 167H781.826C781.73 167 781.652 166.964 781.592 166.892C781.532 166.82 781.502 166.736 781.502 166.64V153.806C781.502 153.71 781.532 153.632 781.592 153.572C781.652 153.5 781.73 153.464 781.826 153.464H782.762C782.858 153.464 782.936 153.5 782.996 153.572C783.056 153.632 783.086 153.71 783.086 153.806V166.64ZM786.832 166.622C786.832 166.718 786.796 166.802 786.724 166.874C786.664 166.946 786.586 166.982 786.49 166.982H785.626C785.53 166.982 785.446 166.946 785.374 166.874C785.314 166.802 785.284 166.718 785.284 166.622V164.948C785.284 164.852 785.314 164.774 785.374 164.714C785.446 164.642 785.53 164.606 785.626 164.606H786.49C786.586 164.606 786.664 164.642 786.724 164.714C786.796 164.774 786.832 164.852 786.832 164.948V166.622ZM794.966 166.532C794.966 166.652 794.942 166.742 794.894 166.802C794.846 166.862 794.75 166.904 794.606 166.928C794.306 166.988 793.958 167.036 793.562 167.072C793.178 167.108 792.776 167.126 792.356 167.126C791.744 167.126 791.198 167.024 790.718 166.82C790.25 166.604 789.848 166.31 789.512 165.938C789.188 165.554 788.942 165.092 788.774 164.552C788.606 164.012 788.522 163.412 788.522 162.752V161.348C788.522 160.688 788.606 160.088 788.774 159.548C788.942 159.008 789.188 158.552 789.512 158.18C789.836 157.796 790.238 157.502 790.718 157.298C791.198 157.082 791.744 156.974 792.356 156.974C792.776 156.974 793.178 156.992 793.562 157.028C793.958 157.064 794.306 157.112 794.606 157.172C794.75 157.196 794.846 157.238 794.894 157.298C794.942 157.346 794.966 157.436 794.966 157.568V158.216C794.966 158.312 794.936 158.384 794.876 158.432C794.816 158.468 794.744 158.486 794.66 158.486H794.588C794.192 158.438 793.832 158.408 793.508 158.396C793.184 158.372 792.8 158.36 792.356 158.36C791.636 158.36 791.078 158.606 790.682 159.098C790.298 159.578 790.106 160.328 790.106 161.348V162.752C790.106 163.772 790.298 164.528 790.682 165.02C791.066 165.5 791.624 165.74 792.356 165.74C792.8 165.74 793.184 165.734 793.508 165.722C793.832 165.698 794.192 165.662 794.588 165.614H794.66C794.744 165.614 794.816 165.638 794.876 165.686C794.936 165.722 794.966 165.788 794.966 165.884V166.532ZM803.66 162.734C803.66 163.394 803.576 163.994 803.408 164.534C803.24 165.074 802.988 165.536 802.652 165.92C802.316 166.304 801.896 166.604 801.392 166.82C800.888 167.024 800.306 167.126 799.646 167.126C798.986 167.126 798.404 167.024 797.9 166.82C797.408 166.604 796.994 166.304 796.658 165.92C796.322 165.536 796.07 165.074 795.902 164.534C795.734 163.994 795.65 163.394 795.65 162.734V161.366C795.65 160.706 795.734 160.106 795.902 159.566C796.07 159.026 796.322 158.564 796.658 158.18C796.994 157.796 797.408 157.502 797.9 157.298C798.404 157.082 798.986 156.974 799.646 156.974C800.306 156.974 800.888 157.082 801.392 157.298C801.896 157.502 802.316 157.796 802.652 158.18C802.988 158.564 803.24 159.026 803.408 159.566C803.576 160.106 803.66 160.706 803.66 161.366V162.734ZM802.076 161.366C802.076 160.442 801.884 159.71 801.5 159.17C801.116 158.63 800.498 158.36 799.646 158.36C798.806 158.36 798.194 158.63 797.81 159.17C797.426 159.698 797.234 160.43 797.234 161.366V162.734C797.234 163.658 797.42 164.39 797.792 164.93C798.176 165.47 798.794 165.74 799.646 165.74C800.486 165.74 801.098 165.476 801.482 164.948C801.878 164.408 802.076 163.67 802.076 162.734V161.366ZM817.339 166.64C817.339 166.736 817.303 166.82 817.231 166.892C817.159 166.964 817.075 167 816.979 167H816.115C816.019 167 815.935 166.964 815.863 166.892C815.791 166.82 815.755 166.736 815.755 166.64V160.268C815.755 159.896 815.713 159.584 815.629 159.332C815.545 159.08 815.431 158.882 815.287 158.738C815.143 158.594 814.969 158.492 814.765 158.432C814.561 158.372 814.345 158.342 814.117 158.342C813.793 158.342 813.445 158.39 813.073 158.486C812.713 158.582 812.359 158.696 812.011 158.828C812.119 159.224 812.173 159.692 812.173 160.232V166.64C812.173 166.736 812.143 166.82 812.083 166.892C812.023 166.964 811.945 167 811.849 167H810.895C810.799 167 810.721 166.964 810.661 166.892C810.613 166.82 810.589 166.736 810.589 166.64V160.232C810.589 159.836 810.559 159.518 810.499 159.278C810.451 159.026 810.367 158.834 810.247 158.702C810.127 158.558 809.977 158.462 809.797 158.414C809.629 158.366 809.431 158.342 809.203 158.342C808.879 158.342 808.525 158.414 808.141 158.558C807.769 158.69 807.391 158.852 807.007 159.044V166.64C807.007 166.736 806.977 166.82 806.917 166.892C806.857 166.964 806.779 167 806.683 167H805.729C805.633 167 805.555 166.964 805.495 166.892C805.447 166.82 805.423 166.736 805.423 166.64V157.46C805.423 157.364 805.453 157.28 805.513 157.208C805.585 157.136 805.669 157.1 805.765 157.1H806.665C806.761 157.1 806.839 157.136 806.899 157.208C806.971 157.28 807.007 157.364 807.007 157.46V157.802C807.367 157.574 807.769 157.376 808.213 157.208C808.657 157.04 809.131 156.956 809.635 156.956C810.019 156.956 810.355 157.016 810.643 157.136C810.943 157.244 811.207 157.43 811.435 157.694C811.939 157.454 812.443 157.274 812.947 157.154C813.463 157.022 813.955 156.956 814.423 156.956C814.831 156.956 815.209 157.01 815.557 157.118C815.917 157.226 816.229 157.412 816.493 157.676C816.757 157.928 816.961 158.27 817.105 158.702C817.261 159.122 817.339 159.644 817.339 160.268V166.64Z" fill="white"/>
<path fill-rule="evenodd" clip-rule="evenodd" d="M670 64L712.008 128L731.699 98H746.931L753.004 89H737.607L748.109 73H763.127L769.2 64H743.388L712.008 111.5L709.984 108.5L739.339 64H670ZM687.208 73L704.416 100L722.637 73H687.208Z" fill="white"/>
</svg>
