<svg width="70" height="70" viewBox="0 0 70 70" fill="none" xmlns="http://www.w3.org/2000/svg">
<path d="M33.11 1C26.5106 5.62533 19.2874 8.18107 12.4432 12.0103C9.94299 13.4091 7.18109 14.5029 4.80827 16.245C4.25036 16.6546 0.946416 18.588 2.34009 18.8094C4.80745 19.2014 7.22678 20.1033 9.69525 20.4562C12.3977 20.8426 14.9806 22.4553 17.7086 22.5971C21.0086 22.7687 24.2988 23.7012 27.6142 23.8675C29.8503 23.9797 32.2626 25.0909 34.4264 25.0909C35.8191 25.0909 37.0598 24.0015 37.276 23.8675C38.2741 23.2492 38.9963 22.7909 40.0078 22.2266C41.4846 21.4025 42.7573 20.8262 44.1964 19.8831C47.8127 17.5133 50.4715 16.3491 54.1224 14.1512C58.7535 11.3632 60.0817 12.4741 64.7755 9.98845C65.5234 9.59243 68.669 7.64498 67.8715 7.64498C66.4137 7.64498 66.2482 6.86382 64.7755 6.86382C62.6211 6.86382 62.4311 6.17574 60.2928 6.08168C58.4817 6.002 56.5006 5.78171 54.7312 5.23473C50.4309 3.90533 45.6969 5.02137 41.436 3.3291C38.8474 2.30104 33.9358 1.39573 31.2662 1.39573" stroke="#B2B2B2" stroke-width="2" stroke-linecap="round"/>
<path d="M13.6787 23.6542C13.6787 25.1857 12.8589 34.1056 13.6787 35.3161C15.5154 38.0278 17.6608 38.089 20.238 39.3121C26.5944 42.3286 33.7366 40.6441 40.3734 39.3121C44.1202 38.5601 45.5107 38.2056 48.7928 36.6481C49.6609 36.2361 52.4237 34.1944 51.9078 32.6521C50.4935 28.4234 51.6477 22.7077 51.6477 18" stroke="#B2B2B2" stroke-width="2" stroke-linecap="round"/>
<path d="M35.4648 10.6364C42.1484 12.439 49.1957 12.4023 55.9738 12.4023C58.4719 12.4023 57.1292 21.0133 57.1292 23.4392C57.1292 25.8261 56.7249 29.2229 57.3539 31.3858C57.806 32.9405 57.68 35.5853 56.8404 36.3402C54.1538 38.7555 52.9729 45.2134 55.1714 48.9468C55.6167 49.7031 55.7323 50.3181 56.038 51.2523C56.3207 52.1164 56.063 53.3507 56.4873 53.9993C56.536 54.0736 57.2256 48.2605 58.3488 51.6938C59.8651 56.3287 57.9957 50.0318 59.1512 49.9279C59.7303 49.8758 60.0608 51.1454 60.5955 50.7127C60.9112 50.4573 61.4429 49.101 61.4621 48.6034C61.5426 46.5122 61.4967 44.3075 60.9486 42.4227C60.6932 41.5446 60.9613 40.252 60.5313 39.4305C60.2308 38.8563 59.7858 37.4662 59.7289 36.6835C59.6463 35.5465 58.9719 34.1811 58.5735 33.2498C58.1667 32.2989 58.0718 31.0953 57.7711 30.0614C57.2299 28.2003 57.4181 25.4767 57.4181 23.4392" stroke="#B2B2B2" stroke-width="2" stroke-linecap="round"/>
<path d="M34.6194 10.6364C31.7037 11.4733 32.2871 13.7477 34.9216 13.7477C37.2189 13.7477 39.5344 14.1922 41.8707 14.1922C46.3708 14.1922 50.6967 13.2501 55.0135 14.6613C56.7168 15.2182 57.2611 23.5751 56.5242 25.5264C55.9193 27.1283 56.3731 30.3719 56.3731 32.1935C56.3731 34.8492 56.5242 30.8801 56.5242 33.5227" stroke="#B2B2B2" stroke-width="2" stroke-linecap="round"/>
<path d="M55.9155 51.5909C56.1417 49.9847 55.8891 46.9975 56.8451 45.5682" stroke="#B2B2B2" stroke-width="2" stroke-linecap="round"/>
<path d="M58.5112 51.5909C58.9143 47.9422 58.6943 43.9988 57.7747 40.75" stroke="#B2B2B2" stroke-width="2" stroke-linecap="round"/>
</svg>
