<svg width="161" height="52" viewBox="0 0 161 52" fill="none" xmlns="http://www.w3.org/2000/svg">
<path d="M10.2106 25.5642V27.6872C10.2106 28.0241 10.3303 28.3106 10.5698 28.5465C10.8092 28.7823 11.1 28.9003 11.442 28.9003H25.2956C25.6376 28.9003 25.9284 29.0182 26.1678 29.2541C26.4073 29.49 26.527 29.7764 26.527 30.1134V37.1899C26.527 37.5269 26.4073 37.8133 26.1678 38.0492C25.9284 38.2851 25.6376 38.403 25.2956 38.403H11.442C11.1 38.403 10.8092 38.5209 10.5698 38.7568C10.3303 38.9927 10.2106 39.2791 10.2106 39.6161V50.7869C10.2106 51.1239 10.0909 51.4103 9.85142 51.6462C9.61198 51.8821 9.32123 52 8.97916 52H1.23143C0.889365 52 0.598611 51.8821 0.359166 51.6462C0.119722 51.4103 0 51.1239 0 50.7869V16.2131C0 15.8761 0.119722 15.5897 0.359166 15.3538C0.598611 15.1179 0.889365 15 1.23143 15H27.348C27.69 15 27.9808 15.1179 28.2202 15.3538C28.4597 15.5897 28.5794 15.8761 28.5794 16.2131V23.138C28.5794 23.475 28.4597 23.7614 28.2202 23.9973C27.9808 24.2332 27.69 24.3511 27.348 24.3511H11.442C11.1 24.3511 10.8092 24.469 10.5698 24.7049C10.3303 24.9408 10.2106 25.2272 10.2106 25.5642Z" fill="#7B267C"/>
<path d="M42.9124 52H35.1646C34.7884 52 34.4805 51.8821 34.2411 51.6462C34.0358 51.4103 33.9332 51.1239 33.9332 50.7869V16.2637C33.9332 15.9267 34.0358 15.6403 34.2411 15.4044C34.4805 15.1685 34.7884 15.0505 35.1646 15.0505H42.9124C43.2544 15.0505 43.5452 15.1685 43.7846 15.4044C44.0241 15.6403 44.1438 15.9267 44.1438 16.2637V50.7869C44.1438 51.1239 44.0241 51.4103 43.7846 51.6462C43.5452 51.8821 43.2544 52 42.9124 52Z" fill="#7B267C"/>
<path d="M86.2609 16.2131V50.7869C86.2609 51.1239 86.1412 51.4103 85.9017 51.6462C85.6623 51.8821 85.3715 52 85.0295 52H77.4357C77.0936 52 76.7344 51.8989 76.3582 51.6967C75.9819 51.4945 75.6911 51.2587 75.4859 50.9891L62.0941 32.4385C61.8889 32.1689 61.6665 32.0679 61.4271 32.1352C61.2219 32.1689 61.1192 32.3543 61.1192 32.6913V50.7869C61.1192 51.1239 60.9995 51.4103 60.7601 51.6462C60.5206 51.8821 60.2299 52 59.8878 52H52.2427C51.9006 52 51.6099 51.8821 51.3704 51.6462C51.131 51.4103 51.0113 51.1239 51.0113 50.7869V16.2131C51.0113 15.8761 51.131 15.5897 51.3704 15.3538C51.6099 15.1179 51.9006 15 52.2427 15H59.9391C60.2812 15 60.6403 15.1011 61.0166 15.3033C61.3929 15.4718 61.6836 15.6908 61.8889 15.9604L75.2293 34.5109C75.4346 34.7805 75.6398 34.8985 75.8451 34.8648C76.0845 34.8311 76.2042 34.6457 76.2042 34.3087V16.2131C76.2042 15.8761 76.3239 15.5897 76.5634 15.3538C76.8028 15.1179 77.0936 15 77.4357 15H85.0295C85.3715 15 85.6623 15.1179 85.9017 15.3538C86.1412 15.5897 86.2609 15.8761 86.2609 16.2131Z" fill="#7B267C"/>
<path d="M105.035 16.1626C105.171 15.8593 105.394 15.6066 105.702 15.4044C106.044 15.1685 106.403 15.0505 106.779 15.0505H113.962C114.304 15.0505 114.629 15.1685 114.937 15.4044C115.279 15.6066 115.519 15.8593 115.656 16.1626L130.638 50.5342C130.775 50.8374 130.741 51.1576 130.535 51.4945C130.364 51.8315 130.005 52 129.458 52H120.684C120.308 52 119.949 51.8989 119.606 51.6967C119.299 51.4608 119.059 51.1913 118.888 50.888L117.503 47.8552C117.332 47.5519 117.075 47.2992 116.733 47.097C116.425 46.8611 116.1 46.7432 115.758 46.7432H104.932C104.556 46.7432 104.196 46.8611 103.854 47.097C103.547 47.2992 103.324 47.5519 103.187 47.8552L101.751 50.888C101.614 51.1913 101.374 51.4608 101.032 51.6967C100.725 51.8989 100.4 52 100.058 52H91.2323C91.0613 52 90.8902 51.9663 90.7192 51.8989C90.514 51.8315 90.36 51.7304 90.2574 51.5956C90.1206 51.4608 90.0351 51.2923 90.0009 51.0902C89.9667 50.888 90.018 50.6521 90.1548 50.3825L105.035 16.1626ZM108.062 38.1503H112.628C112.97 38.1503 113.21 38.0492 113.347 37.847C113.518 37.6111 113.518 37.3415 113.347 37.0383C113.005 36.1958 112.594 35.2186 112.115 34.1066C111.636 32.9608 111.192 31.8994 110.781 30.9221C110.644 30.6189 110.49 30.4672 110.319 30.4672C110.148 30.4672 109.994 30.6189 109.858 30.9221L107.292 37.0383C107.155 37.3415 107.155 37.6111 107.292 37.847C107.429 38.0492 107.686 38.1503 108.062 38.1503Z" fill="#7B267C"/>
<path d="M161 43.9126V50.7869C161 51.1239 160.88 51.4103 160.641 51.6462C160.401 51.8821 160.111 52 159.769 52H134.165C133.789 52 133.481 51.8821 133.242 51.6462C133.036 51.4103 132.934 51.1239 132.934 50.7869V16.2131C132.934 15.8761 133.036 15.5897 133.242 15.3538C133.481 15.1179 133.789 15 134.165 15H141.862C142.204 15 142.494 15.1179 142.734 15.3538C142.973 15.5897 143.093 15.8761 143.093 16.2131V41.4863C143.093 41.8233 143.196 42.1097 143.401 42.3456C143.64 42.5815 143.948 42.6995 144.324 42.6995H159.769C160.111 42.6995 160.401 42.8174 160.641 43.0533C160.88 43.2892 161 43.5756 161 43.9126Z" fill="#7B267C"/>
<path d="M6.28202 9.39842H4.79965C4.68606 9.39842 4.58951 9.43843 4.50999 9.51847C4.43048 9.5985 4.39072 9.69569 4.39072 9.81003V12.3654C4.39072 12.4798 4.35096 12.577 4.27145 12.657C4.19193 12.737 4.09538 12.777 3.98179 12.777H1.40893C1.29534 12.777 1.19879 12.737 1.11927 12.657C1.03976 12.577 1 12.4798 1 12.3654V0.634566C1 0.520229 1.03976 0.423043 1.11927 0.343009C1.19879 0.262973 1.29534 0.222955 1.40893 0.222955H6.6228C7.25892 0.222955 7.85527 0.343008 8.41187 0.583114C8.97983 0.823219 9.46828 1.15479 9.87721 1.57784C10.2975 2.00088 10.6269 2.49252 10.8655 3.05277C11.1154 3.61302 11.2403 4.21328 11.2403 4.85356C11.2403 5.49384 11.1381 6.09411 10.9336 6.65435C10.7291 7.20317 10.4168 7.68338 9.99648 8.09499C9.58755 8.49516 9.07071 8.8153 8.44595 9.05541C7.83255 9.28408 7.11125 9.39842 6.28202 9.39842ZM6.4013 3.37863H4.79965C4.68606 3.37863 4.58951 3.41865 4.50999 3.49868C4.43048 3.57872 4.39072 3.6759 4.39072 3.79024V5.81398C4.39072 5.92832 4.43048 6.02551 4.50999 6.10554C4.58951 6.18558 4.68606 6.22559 4.79965 6.22559H6.6228C7.05445 6.22559 7.36683 6.08839 7.55993 5.81398C7.7644 5.52814 7.86663 5.208 7.86663 4.85356C7.86663 4.67062 7.83255 4.4934 7.7644 4.3219C7.7076 4.13896 7.61673 3.97889 7.49178 3.84169C7.36683 3.70449 7.21348 3.59587 7.03173 3.51583C6.84998 3.42436 6.63984 3.37863 6.4013 3.37863Z" fill="black"/>
<path d="M15.5296 12.777H12.9908C12.8772 12.777 12.7806 12.737 12.7011 12.657C12.6216 12.577 12.5819 12.4798 12.5819 12.3654V0.634566C12.5819 0.520229 12.6216 0.423043 12.7011 0.343009C12.7806 0.262973 12.8772 0.222955 12.9908 0.222955H18.2898C18.9487 0.222955 19.5564 0.337291 20.113 0.565964C20.6696 0.783202 21.141 1.09191 21.5272 1.49208C21.9248 1.89226 22.2315 2.36675 22.4473 2.91557C22.6745 3.46438 22.7881 4.07036 22.7881 4.73351C22.7881 5.09939 22.7426 5.46526 22.6518 5.83113C22.5723 6.18558 22.453 6.52287 22.294 6.84301C22.1349 7.16315 21.9475 7.45471 21.7317 7.71768C21.5159 7.96922 21.2716 8.18074 20.999 8.35224C20.9081 8.42084 20.8457 8.5066 20.8116 8.6095C20.7889 8.70097 20.8116 8.79244 20.8797 8.88391C21.3114 9.45559 21.7658 10.0444 22.2428 10.6504C22.7199 11.2564 23.1459 11.8109 23.5208 12.314C23.5889 12.4055 23.6059 12.5084 23.5719 12.6227C23.5378 12.7256 23.464 12.777 23.3504 12.777H20.1812C20.0676 12.777 19.9426 12.7485 19.8063 12.6913C19.6813 12.6227 19.5848 12.5427 19.5166 12.4512C19.1531 11.971 18.7897 11.485 18.4262 10.9934C18.074 10.5018 17.7219 10.0044 17.3698 9.50132C17.3016 9.40985 17.205 9.33553 17.0801 9.27836C16.9551 9.20976 16.8359 9.17546 16.7223 9.17546H16.3474C16.2338 9.17546 16.1373 9.21548 16.0578 9.29551C15.9782 9.37555 15.9385 9.47274 15.9385 9.58707V12.3654C15.9385 12.4798 15.8987 12.577 15.8192 12.657C15.7397 12.737 15.6432 12.777 15.5296 12.777ZM16.3474 6.01979H18.1535C18.2898 6.01979 18.4318 5.99692 18.5795 5.95119C18.7272 5.89402 18.8635 5.81398 18.9884 5.71108C19.1134 5.59675 19.2156 5.45954 19.2951 5.29947C19.3746 5.1394 19.4144 4.95075 19.4144 4.73351C19.4144 4.61917 19.3917 4.48769 19.3463 4.33905C19.3122 4.17898 19.244 4.03034 19.1418 3.89314C19.0509 3.7445 18.9203 3.62445 18.7499 3.53298C18.5909 3.43008 18.3921 3.37863 18.1535 3.37863H16.3474C16.2338 3.37863 16.1373 3.41865 16.0578 3.49868C15.9782 3.57872 15.9385 3.6759 15.9385 3.79024V5.60818C15.9385 5.72252 15.9782 5.8197 16.0578 5.89974C16.1373 5.97977 16.2338 6.01979 16.3474 6.01979Z" fill="black"/>
<path d="M24.2828 6.5C24.2828 5.60818 24.4532 4.76781 24.794 3.97889C25.1348 3.18997 25.5948 2.50396 26.1741 1.92084C26.7535 1.3263 27.435 0.85752 28.2188 0.514512C29.0026 0.171504 29.8375 0 30.7235 0C31.6095 0 32.4444 0.171504 33.2282 0.514512C34.012 0.85752 34.6935 1.3263 35.2729 1.92084C35.8635 2.50396 36.3293 3.18997 36.67 3.97889C37.0108 4.76781 37.1812 5.60818 37.1812 6.5C37.1812 7.39182 37.0108 8.23219 36.67 9.02111C36.3293 9.81003 35.8635 10.5018 35.2729 11.0963C34.6935 11.6794 34.012 12.1425 33.2282 12.4855C32.4444 12.8285 31.6095 13 30.7235 13C29.8375 13 29.0026 12.8285 28.2188 12.4855C27.435 12.1425 26.7535 11.6794 26.1741 11.0963C25.5948 10.5018 25.1348 9.81003 24.794 9.02111C24.4532 8.23219 24.2828 7.39182 24.2828 6.5ZM27.6565 6.5C27.6565 6.93448 27.736 7.34609 27.8951 7.73483C28.0541 8.12357 28.2699 8.46658 28.5425 8.76385C28.8265 9.06113 29.1559 9.30123 29.5308 9.48417C29.9056 9.65567 30.3032 9.74142 30.7235 9.74142C31.1438 9.74142 31.5414 9.65567 31.9162 9.48417C32.2911 9.30123 32.6205 9.06113 32.9045 8.76385C33.1884 8.46658 33.4099 8.12357 33.569 7.73483C33.728 7.34609 33.8075 6.93448 33.8075 6.5C33.8075 6.07696 33.728 5.67106 33.569 5.28232C33.4099 4.88215 33.1884 4.53914 32.9045 4.2533C32.6205 3.95603 32.2911 3.72164 31.9162 3.55013C31.5414 3.36719 31.1438 3.27573 30.7235 3.27573C30.3032 3.27573 29.9056 3.36719 29.5308 3.55013C29.1559 3.72164 28.8265 3.95603 28.5425 4.2533C28.2699 4.53914 28.0541 4.88215 27.8951 5.28232C27.736 5.67106 27.6565 6.07696 27.6565 6.5Z" fill="black"/>
<path d="M49.4129 0.720317L45.1532 7.66623C45.0964 7.76913 45.0453 7.8949 44.9999 8.04354C44.9544 8.19217 44.9317 8.32366 44.9317 8.43799V12.3654C44.9317 12.4798 44.892 12.577 44.8124 12.657C44.7329 12.737 44.6364 12.777 44.5228 12.777H41.9499C41.8363 12.777 41.7398 12.737 41.6603 12.657C41.5808 12.577 41.541 12.4798 41.541 12.3654V8.45515C41.541 8.34081 41.5183 8.20932 41.4728 8.06069C41.4388 7.90062 41.3933 7.77485 41.3365 7.68338C40.655 6.50572 39.9564 5.35092 39.2408 4.219C38.5365 3.08707 37.8322 1.92084 37.128 0.720317C37.0712 0.617415 37.0598 0.514513 37.0939 0.41161C37.128 0.297274 37.2018 0.240107 37.3154 0.240107H40.3483C40.4619 0.240107 40.5755 0.274407 40.6891 0.343009C40.814 0.41161 40.9049 0.497362 40.9617 0.600264L43.0575 4.27045C43.1143 4.36192 43.1824 4.40765 43.2619 4.40765C43.3414 4.40765 43.4096 4.36192 43.4664 4.27045L45.5451 0.600264C45.6019 0.497362 45.6871 0.41161 45.8007 0.343009C45.9257 0.274407 46.0449 0.240107 46.1585 0.240107H49.2255C49.3391 0.240107 49.4186 0.280124 49.464 0.360159C49.5208 0.440194 49.5038 0.560247 49.4129 0.720317Z" fill="black"/>
<path d="M53.8427 3.79024V4.51055C53.8427 4.62489 53.8825 4.72208 53.962 4.80211C54.0415 4.88215 54.1381 4.92216 54.2517 4.92216H58.8692C58.9828 4.92216 59.0793 4.96218 59.1588 5.04222C59.2384 5.12225 59.2781 5.21944 59.2781 5.33377V7.70053C59.2781 7.81486 59.2384 7.91205 59.1588 7.99208C59.0793 8.07212 58.9828 8.11214 58.8692 8.11214H54.2517C54.1381 8.11214 54.0415 8.15215 53.962 8.23219C53.8825 8.31223 53.8427 8.40941 53.8427 8.52375V9.17546C53.8427 9.2898 53.8825 9.38698 53.962 9.46702C54.0415 9.54705 54.1381 9.58707 54.2517 9.58707H59.5507C59.6643 9.58707 59.7609 9.62709 59.8404 9.70712C59.9199 9.78716 59.9597 9.88435 59.9597 9.99868V12.3654C59.9597 12.4798 59.9199 12.577 59.8404 12.657C59.7609 12.737 59.6643 12.777 59.5507 12.777H50.878C50.7644 12.777 50.6678 12.737 50.5883 12.657C50.5088 12.577 50.4691 12.4798 50.4691 12.3654V0.634566C50.4691 0.520229 50.5088 0.423043 50.5883 0.343009C50.6678 0.262973 50.7644 0.222955 50.878 0.222955H59.5507C59.6643 0.222955 59.7609 0.262973 59.8404 0.343009C59.9199 0.423043 59.9597 0.520229 59.9597 0.634566V2.96702C59.9597 3.08135 59.9199 3.17854 59.8404 3.25858C59.7609 3.33861 59.6643 3.37863 59.5507 3.37863H54.2517C54.1381 3.37863 54.0415 3.41865 53.962 3.49868C53.8825 3.57872 53.8427 3.6759 53.8427 3.79024Z" fill="black"/>
<path d="M73.8307 9.43272C73.5013 9.9701 73.1378 10.4617 72.7402 10.9077C72.3427 11.3421 71.894 11.7137 71.3942 12.0224C70.9057 12.3311 70.3605 12.5712 69.7584 12.7427C69.1564 12.9142 68.4919 13 67.7649 13C66.8562 13 66.0042 12.8285 65.2091 12.4855C64.4139 12.1425 63.7153 11.6794 63.1133 11.0963C62.5226 10.5132 62.0569 9.82718 61.7161 9.03826C61.3754 8.24934 61.205 7.40897 61.205 6.51715C61.205 5.62533 61.3754 4.78496 61.7161 3.99604C62.0569 3.20712 62.5226 2.52111 63.1133 1.938C63.7153 1.35488 64.4139 0.891821 65.2091 0.548813C66.0042 0.205805 66.8562 0.0343014 67.7649 0.0343014C68.5146 0.0343014 69.1905 0.120053 69.7925 0.291557C70.3946 0.463061 70.9398 0.703166 71.4282 1.01187C71.9167 1.32058 72.354 1.69789 72.7402 2.1438C73.1378 2.57828 73.5013 3.05849 73.8307 3.58443C73.8875 3.6759 73.8989 3.77309 73.8648 3.87599C73.8307 3.97889 73.7626 4.05321 73.6603 4.09894L71.2408 5.05937C71.1272 5.1051 71.0136 5.1051 70.9 5.05937C70.7864 5.01363 70.7013 4.94503 70.6445 4.85356C70.315 4.32762 69.9175 3.92744 69.4517 3.65303C68.986 3.36719 68.4237 3.22427 67.7649 3.22427C67.3332 3.22427 66.9243 3.31574 66.5381 3.49868C66.1633 3.68162 65.8338 3.92744 65.5499 4.23615C65.2659 4.53342 65.0444 4.88215 64.8853 5.28232C64.7263 5.6825 64.6468 6.09411 64.6468 6.51715C64.6468 6.95163 64.7263 7.36895 64.8853 7.76913C65.0444 8.15787 65.2659 8.50088 65.5499 8.79815C65.8338 9.09543 66.1633 9.33553 66.5381 9.51847C66.9243 9.70141 67.3332 9.79288 67.7649 9.79288C68.3897 9.79288 68.9519 9.64424 69.4517 9.34697C69.9629 9.03826 70.3662 8.6438 70.6615 8.16359C70.7183 8.07212 70.7978 8.00352 70.9 7.95778C71.0136 7.91205 71.1272 7.91205 71.2408 7.95778L73.6603 8.91821C73.7626 8.96394 73.8307 9.03826 73.8648 9.14116C73.8989 9.23263 73.8875 9.32981 73.8307 9.43272Z" fill="black"/>
<path d="M83.191 3.37863H80.8056C80.692 3.37863 80.5954 3.41865 80.5159 3.49868C80.4364 3.57872 80.3966 3.6759 80.3966 3.79024V12.3654C80.3966 12.4798 80.3569 12.577 80.2774 12.657C80.2092 12.737 80.1126 12.777 79.9877 12.777H77.4319C77.3183 12.777 77.2217 12.737 77.1422 12.657C77.0627 12.577 77.023 12.4798 77.023 12.3654V3.79024C77.023 3.6759 76.9832 3.57872 76.9037 3.49868C76.8355 3.41865 76.739 3.37863 76.614 3.37863H74.1945C74.0809 3.37863 73.9844 3.33861 73.9049 3.25858C73.8253 3.17854 73.7856 3.08135 73.7856 2.96702V0.634566C73.7856 0.520229 73.8253 0.423043 73.9049 0.343009C73.9844 0.262973 74.0809 0.222955 74.1945 0.222955H83.191C83.3159 0.222955 83.4125 0.262973 83.4806 0.343009C83.5602 0.423043 83.5999 0.520229 83.5999 0.634566V2.96702C83.5999 3.08135 83.5602 3.17854 83.4806 3.25858C83.4125 3.33861 83.3159 3.37863 83.191 3.37863Z" fill="black"/>
<path d="M84.1016 6.5C84.1016 5.60818 84.272 4.76781 84.6128 3.97889C84.9536 3.18997 85.4136 2.50396 85.9929 1.92084C86.5723 1.3263 87.2538 0.85752 88.0376 0.514512C88.8214 0.171504 89.6563 0 90.5423 0C91.4283 0 92.2632 0.171504 93.047 0.514512C93.8308 0.85752 94.5123 1.3263 95.0917 1.92084C95.6823 2.50396 96.1481 3.18997 96.4888 3.97889C96.8296 4.76781 97 5.60818 97 6.5C97 7.39182 96.8296 8.23219 96.4888 9.02111C96.1481 9.81003 95.6823 10.5018 95.0917 11.0963C94.5123 11.6794 93.8308 12.1425 93.047 12.4855C92.2632 12.8285 91.4283 13 90.5423 13C89.6563 13 88.8214 12.8285 88.0376 12.4855C87.2538 12.1425 86.5723 11.6794 85.9929 11.0963C85.4136 10.5018 84.9536 9.81003 84.6128 9.02111C84.272 8.23219 84.1016 7.39182 84.1016 6.5ZM87.4753 6.5C87.4753 6.93448 87.5548 7.34609 87.7139 7.73483C87.8729 8.12357 88.0887 8.46658 88.3613 8.76385C88.6453 9.06113 88.9747 9.30123 89.3496 9.48417C89.7244 9.65567 90.122 9.74142 90.5423 9.74142C90.9626 9.74142 91.3602 9.65567 91.735 9.48417C92.1099 9.30123 92.4393 9.06113 92.7233 8.76385C93.0072 8.46658 93.2288 8.12357 93.3878 7.73483C93.5468 7.34609 93.6263 6.93448 93.6263 6.5C93.6263 6.07696 93.5468 5.67106 93.3878 5.28232C93.2288 4.88215 93.0072 4.53914 92.7233 4.2533C92.4393 3.95603 92.1099 3.72164 91.735 3.55013C91.3602 3.36719 90.9626 3.27573 90.5423 3.27573C90.122 3.27573 89.7244 3.36719 89.3496 3.55013C88.9747 3.72164 88.6453 3.95603 88.3613 4.2533C88.0887 4.53914 87.8729 4.88215 87.7139 5.28232C87.5548 5.67106 87.4753 6.07696 87.4753 6.5Z" fill="black"/>
</svg>
