<svg width="161" height="32" viewBox="0 0 161 32" fill="none" xmlns="http://www.w3.org/2000/svg">
<path d="M33.5565 25.6114C32.6824 25.6114 32.0091 25.3752 31.5366 24.9029C31.0877 24.4306 30.8633 23.7575 30.8633 22.8837V10.3083C30.8633 9.43449 31.0877 8.77324 31.5366 8.32454C32.0091 7.85222 32.6588 7.61606 33.4857 7.61606C34.3361 7.61606 34.9858 7.85222 35.4347 8.32454C35.8836 8.77324 36.108 9.43449 36.108 10.3083V12.3274L35.7182 11.1584C36.2616 10.0013 37.0648 9.11567 38.128 8.50166C39.2147 7.86403 40.4432 7.54522 41.8134 7.54522C43.2073 7.54522 44.3531 7.8168 45.2509 8.35997C46.1486 8.87951 46.8219 9.68246 47.2708 10.7688C47.7197 11.8315 47.9441 13.1894 47.9441 14.8425V22.8837C47.9441 23.7575 47.7079 24.4306 47.2354 24.9029C46.7865 25.3752 46.125 25.6114 45.2509 25.6114C44.4004 25.6114 43.7389 25.3752 43.2664 24.9029C42.8175 24.4306 42.5931 23.7575 42.5931 22.8837V15.0905C42.5931 13.8861 42.3686 13.0241 41.9198 12.5046C41.4945 11.9614 40.833 11.6898 39.9353 11.6898C38.8013 11.6898 37.8917 12.044 37.2066 12.7525C36.5451 13.461 36.2143 14.4056 36.2143 15.5864V22.8837C36.2143 24.7022 35.3284 25.6114 33.5565 25.6114Z" fill="#33ADB8"/>
<path d="M59.9123 25.6822C57.8569 25.6822 56.085 25.3162 54.5967 24.5841C53.1319 23.8284 51.9979 22.7775 51.1947 21.4314C50.4151 20.0616 50.0252 18.4558 50.0252 16.6137C50.0252 14.8189 50.4032 13.2485 51.1592 11.9023C51.9152 10.5326 52.9665 9.46991 54.3132 8.7142C55.6834 7.93488 57.2309 7.54522 58.9555 7.54522C60.2076 7.54522 61.3416 7.75776 62.3575 8.18285C63.3733 8.58432 64.2475 9.17471 64.9798 9.95404C65.7122 10.7097 66.2674 11.6426 66.6454 12.7525C67.0234 13.8389 67.2124 15.0551 67.2124 16.4012C67.2124 16.8499 67.0706 17.1923 66.7871 17.4285C66.5036 17.641 66.0902 17.7473 65.5468 17.7473H54.4195V14.9842H63.3497L62.7827 15.4802C62.7827 14.5119 62.641 13.709 62.3575 13.0713C62.074 12.4101 61.6605 11.9142 61.1172 11.5835C60.5974 11.2529 59.9477 11.0876 59.1681 11.0876C58.294 11.0876 57.5498 11.2883 56.9355 11.6898C56.3213 12.0913 55.8488 12.6699 55.518 13.4256C55.1873 14.1813 55.0219 15.0905 55.0219 16.1532V16.4366C55.0219 18.2314 55.4354 19.5539 56.2622 20.4041C57.1127 21.2542 58.3648 21.6793 60.0186 21.6793C60.5856 21.6793 61.2353 21.6085 61.9677 21.4668C62.7 21.3251 63.3852 21.1007 64.023 20.7937C64.5664 20.534 65.0507 20.4513 65.476 20.5458C65.9012 20.6166 66.232 20.8055 66.4682 21.1125C66.7045 21.4195 66.8344 21.7738 66.858 22.1753C66.9053 22.5767 66.8226 22.9782 66.61 23.3797C66.3973 23.7575 66.043 24.0763 65.5468 24.3361C64.7436 24.7848 63.834 25.1154 62.8182 25.328C61.8259 25.5641 60.8573 25.6822 59.9123 25.6822Z" fill="#33ADB8"/>
<path d="M75.9239 25.6822C74.8844 25.6822 73.8095 25.5878 72.6991 25.3988C71.6124 25.2099 70.6201 24.8911 69.7224 24.4424C69.2499 24.2062 68.9073 23.911 68.6947 23.5568C68.5057 23.1789 68.423 22.8011 68.4466 22.4232C68.4702 22.0454 68.5884 21.7029 68.801 21.3959C69.0372 21.0889 69.3326 20.8882 69.6869 20.7937C70.0649 20.6757 70.4784 20.7111 70.9272 20.9C71.8959 21.3015 72.7818 21.5849 73.585 21.7502C74.3883 21.9155 75.1797 21.9981 75.9594 21.9981C76.9752 21.9981 77.7076 21.8446 78.1565 21.5376C78.629 21.207 78.8652 20.7819 78.8652 20.2624C78.8652 19.7901 78.7117 19.4358 78.4045 19.1997C78.0974 18.9635 77.6485 18.7982 77.0579 18.7037L73.337 18.0307C71.8722 17.7709 70.7382 17.2395 69.935 16.4366C69.1554 15.61 68.7655 14.5591 68.7655 13.2839C68.7655 12.1031 69.0963 11.0876 69.7578 10.2374C70.4193 9.36364 71.3289 8.70239 72.4865 8.25369C73.6677 7.78137 75.0025 7.54522 76.4909 7.54522C77.554 7.54522 78.5345 7.63968 79.4322 7.82861C80.33 8.01753 81.1923 8.32454 82.0191 8.74963C82.4444 8.96217 82.7397 9.24556 82.9051 9.5998C83.0941 9.95404 83.1531 10.3201 83.0823 10.6979C83.035 11.0758 82.8933 11.4182 82.657 11.7252C82.4208 12.0322 82.1136 12.233 81.7356 12.3274C81.3813 12.4219 80.9678 12.3747 80.4953 12.1857C79.7393 11.8315 79.0424 11.5835 78.4045 11.4418C77.7667 11.2765 77.1524 11.1939 76.5618 11.1939C75.4987 11.1939 74.7309 11.371 74.2584 11.7252C73.7859 12.0559 73.5496 12.4809 73.5496 13.0005C73.5496 13.402 73.6795 13.7444 73.9394 14.0278C74.2229 14.2876 74.6482 14.4647 75.2152 14.5591L78.9361 15.2322C80.4717 15.492 81.6411 16.0115 82.4444 16.7908C83.2476 17.5465 83.6493 18.5856 83.6493 19.9081C83.6493 21.7029 82.9405 23.1199 81.523 24.159C80.1292 25.1745 78.2628 25.6822 75.9239 25.6822Z" fill="#33ADB8"/>
<path d="M88.3337 25.6114C87.4595 25.6114 86.7862 25.3752 86.3137 24.9029C85.8648 24.4306 85.6404 23.7575 85.6404 22.8837V2.72758C85.6404 1.83017 85.8648 1.15712 86.3137 0.708417C86.7862 0.236098 87.4595 -6.10352e-05 88.3337 -6.10352e-05C89.1842 -6.10352e-05 89.8338 0.236098 90.2827 0.708417C90.7552 1.15712 90.9915 1.83017 90.9915 2.72758V11.1584H90.4953C91.0387 10.0013 91.842 9.11567 92.9051 8.50166C93.9918 7.86403 95.2203 7.54522 96.5906 7.54522C97.9845 7.54522 99.1303 7.8168 100.028 8.35997C100.926 8.87951 101.599 9.68246 102.048 10.7688C102.497 11.8315 102.721 13.1894 102.721 14.8425V22.8837C102.721 23.7575 102.485 24.4306 102.012 24.9029C101.564 25.3752 100.902 25.6114 100.028 25.6114C99.1775 25.6114 98.516 25.3752 98.0435 24.9029C97.5946 24.4306 97.3702 23.7575 97.3702 22.8837V15.0905C97.3702 13.8861 97.1458 13.0241 96.6969 12.5046C96.2716 11.9614 95.6101 11.6898 94.7124 11.6898C93.5784 11.6898 92.6688 12.044 91.9837 12.7525C91.3222 13.461 90.9915 14.4056 90.9915 15.5864V22.8837C90.9915 24.7022 90.1055 25.6114 88.3337 25.6114Z" fill="#33ADB8"/>
<path d="M114.689 25.6822C112.634 25.6822 110.862 25.3162 109.374 24.5841C107.909 23.8284 106.775 22.7775 105.972 21.4314C105.192 20.0616 104.802 18.4558 104.802 16.6137C104.802 14.8189 105.18 13.2485 105.936 11.9023C106.692 10.5326 107.744 9.46991 109.09 8.7142C110.461 7.93488 112.008 7.54522 113.733 7.54522C114.985 7.54522 116.119 7.75776 117.135 8.18285C118.15 8.58432 119.025 9.17471 119.757 9.95404C120.489 10.7097 121.045 11.6426 121.423 12.7525C121.801 13.8389 121.99 15.0551 121.99 16.4012C121.99 16.8499 121.848 17.1923 121.564 17.4285C121.281 17.641 120.867 17.7473 120.324 17.7473H109.197V14.9842H118.127L117.56 15.4802C117.56 14.5119 117.418 13.709 117.135 13.0713C116.851 12.4101 116.438 11.9142 115.894 11.5835C115.375 11.2529 114.725 11.0876 113.945 11.0876C113.071 11.0876 112.327 11.2883 111.713 11.6898C111.098 12.0913 110.626 12.6699 110.295 13.4256C109.964 14.1813 109.799 15.0905 109.799 16.1532V16.4366C109.799 18.2314 110.212 19.5539 111.039 20.4041C111.89 21.2542 113.142 21.6793 114.796 21.6793C115.363 21.6793 116.012 21.6085 116.745 21.4668C117.477 21.3251 118.162 21.1007 118.8 20.7937C119.344 20.534 119.828 20.4513 120.253 20.5458C120.678 20.6166 121.009 20.8055 121.245 21.1125C121.482 21.4195 121.612 21.7738 121.635 22.1753C121.682 22.5767 121.6 22.9782 121.387 23.3797C121.174 23.7575 120.82 24.0763 120.324 24.3361C119.521 24.7848 118.611 25.1154 117.595 25.328C116.603 25.5641 115.634 25.6822 114.689 25.6822Z" fill="#33ADB8"/>
<path d="M133.075 25.6822C131.02 25.6822 129.248 25.3162 127.76 24.5841C126.295 23.8284 125.161 22.7775 124.358 21.4314C123.578 20.0616 123.188 18.4558 123.188 16.6137C123.188 14.8189 123.566 13.2485 124.322 11.9023C125.078 10.5326 126.13 9.46991 127.476 8.7142C128.846 7.93488 130.394 7.54522 132.119 7.54522C133.371 7.54522 134.505 7.75776 135.521 8.18285C136.536 8.58432 137.411 9.17471 138.143 9.95404C138.875 10.7097 139.43 11.6426 139.808 12.7525C140.186 13.8389 140.375 15.0551 140.375 16.4012C140.375 16.8499 140.234 17.1923 139.95 17.4285C139.667 17.641 139.253 17.7473 138.71 17.7473H127.583V14.9842H136.513L135.946 15.4802C135.946 14.5119 135.804 13.709 135.521 13.0713C135.237 12.4101 134.824 11.9142 134.28 11.5835C133.76 11.2529 133.111 11.0876 132.331 11.0876C131.457 11.0876 130.713 11.2883 130.099 11.6898C129.484 12.0913 129.012 12.6699 128.681 13.4256C128.35 14.1813 128.185 15.0905 128.185 16.1532V16.4366C128.185 18.2314 128.598 19.5539 129.425 20.4041C130.276 21.2542 131.528 21.6793 133.182 21.6793C133.749 21.6793 134.398 21.6085 135.131 21.4668C135.863 21.3251 136.548 21.1007 137.186 20.7937C137.729 20.534 138.214 20.4513 138.639 20.5458C139.064 20.6166 139.395 20.8055 139.631 21.1125C139.868 21.4195 139.997 21.7738 140.021 22.1753C140.068 22.5767 139.986 22.9782 139.773 23.3797C139.56 23.7575 139.206 24.0763 138.71 24.3361C137.907 24.7848 136.997 25.1154 135.981 25.328C134.989 25.5641 134.02 25.6822 133.075 25.6822Z" fill="#33ADB8"/>
<path d="M145.118 31.9877C144.244 31.9877 143.571 31.7515 143.098 31.2792C142.649 30.8305 142.425 30.1574 142.425 29.26V10.3083C142.425 9.43449 142.649 8.77324 143.098 8.32454C143.571 7.85222 144.22 7.61606 145.047 7.61606C145.921 7.61606 146.583 7.85222 147.032 8.32454C147.48 8.77324 147.705 9.43449 147.705 10.3083V12.7171L147.315 11.3356C147.669 10.202 148.378 9.29279 149.441 8.60793C150.528 7.89945 151.768 7.54522 153.162 7.54522C154.674 7.54522 155.997 7.91126 157.131 8.64336C158.289 9.37545 159.187 10.4145 159.825 11.7607C160.462 13.1068 160.781 14.7126 160.781 16.5783C160.781 18.4439 160.462 20.0616 159.825 21.4314C159.187 22.8011 158.301 23.852 157.167 24.5841C156.033 25.3162 154.698 25.6822 153.162 25.6822C151.792 25.6822 150.575 25.3516 149.512 24.6904C148.449 24.0055 147.729 23.1199 147.351 22.0336H147.776V29.26C147.776 30.1574 147.54 30.8305 147.067 31.2792C146.618 31.7515 145.968 31.9877 145.118 31.9877ZM151.568 21.6793C152.324 21.6793 152.985 21.4904 153.552 21.1125C154.143 20.7347 154.592 20.1797 154.899 19.4476C155.229 18.6919 155.395 17.7355 155.395 16.5783C155.395 14.8543 155.04 13.5909 154.332 12.7879C153.623 11.9614 152.702 11.5481 151.568 11.5481C150.812 11.5481 150.138 11.7252 149.548 12.0795C148.981 12.4337 148.532 12.9887 148.201 13.7444C147.87 14.4765 147.705 15.4211 147.705 16.5783C147.705 18.3023 148.059 19.5893 148.768 20.4395C149.477 21.2661 150.41 21.6793 151.568 21.6793Z" fill="#33ADB8"/>
<path d="M28.7424 12.298C28.5777 11.3641 28.018 10.6015 27.2673 10.1437C27.548 9.31071 27.4862 8.36659 27.0115 7.54542C26.5374 6.72398 25.7504 6.19844 24.8886 6.02509C24.8676 5.14636 24.4858 4.28048 23.7595 3.67101C23.0331 3.06183 22.1136 2.83672 21.2442 2.96824C20.9238 2.14988 20.2689 1.46625 19.3778 1.14257C18.4867 0.818374 17.5457 0.921387 16.7741 1.34206C16.1929 0.682686 15.3439 0.264343 14.395 0.264343C13.4467 0.264343 12.5982 0.682659 12.0165 1.34179C11.2445 0.920598 10.3039 0.818113 9.41208 1.14283C8.52096 1.46676 7.86687 2.14993 7.54621 2.96822C6.67685 2.83672 5.75747 3.06156 5.03093 3.6718C4.30459 4.28071 3.92327 5.14661 3.90212 6.02481C3.04005 6.19815 2.25305 6.72417 1.77913 7.54594C1.30495 8.36691 1.24296 9.31043 1.52334 10.1435C0.772694 10.6012 0.213274 11.3641 0.0484947 12.2983C-0.116278 13.2319 0.148407 14.1397 0.697134 14.8265C0.148146 15.5128 -0.116519 16.4215 0.0487563 17.3557C0.213268 18.289 0.772687 19.052 1.52333 19.5098C1.24295 20.3427 1.30468 21.2869 1.77939 22.1083C2.25305 22.9293 3.04031 23.4545 3.9021 23.6278C3.92303 24.5068 4.30462 25.3727 5.03172 25.9824C5.7578 26.5914 6.67737 26.8162 7.54653 26.6847C7.79736 27.3252 8.25272 27.8824 8.86711 28.2497V30.2857C8.86711 31.1161 9.58113 31.7891 10.4615 31.7891C11.3429 31.7891 12.0564 31.1161 12.0564 30.2857L12.0561 28.3553C12.636 28.9896 13.4677 29.3899 14.3954 29.3893C15.2567 29.3896 16.0364 29.0453 16.6073 28.4889V30.2868C16.6073 31.1171 17.3216 31.7901 18.2022 31.7901C19.0834 31.7901 19.7969 31.1171 19.7969 30.2868V28.3197C20.4743 27.9553 20.9764 27.3694 21.2437 26.6857C22.1133 26.8172 23.0322 26.5926 23.7593 25.9824C24.4853 25.3732 24.8669 24.5076 24.8881 23.6288C25.7501 23.4555 26.5369 22.9297 27.0111 22.1085C27.485 21.2868 27.5472 20.3432 27.2666 19.5108C28.0175 19.053 28.5767 18.2896 28.7417 17.356C28.9062 16.4221 28.6415 15.514 28.0931 14.8278C28.6423 14.1404 28.9072 13.2316 28.7424 12.298ZM22.2971 18.5578C20.9899 19.7445 19.48 18.3798 19.4342 17.7876L19.3497 17.409C19.3803 17.7298 19.3973 18.0564 19.3973 18.3892C19.3973 22.392 17.1164 25.6371 14.3026 25.6371C11.4886 25.6371 9.20763 22.3913 9.20763 18.3892C9.20763 18.1487 9.216 17.9105 9.23222 17.676L9.20763 17.7874C9.16186 18.3796 7.6517 19.7446 6.34472 18.5576C5.03753 17.3712 6.46608 17.1181 7.53761 16.8049C8.22472 16.6041 8.9149 15.9039 9.37208 15.3538C9.49606 15.3684 9.62186 15.3781 9.75027 15.3781C10.8035 15.3781 11.7339 14.8633 12.3108 14.0735C12.8554 14.514 13.5477 14.7789 14.3025 14.7789C15.0678 14.7789 15.7698 14.5078 16.3177 14.0562C16.8939 14.856 17.8306 15.3781 18.8916 15.3781C19.0198 15.3781 19.1456 15.3684 19.2698 15.3538C19.7273 15.9039 20.417 16.6041 21.1043 16.8049C22.1758 17.1183 23.6041 17.3717 22.2971 18.5578Z" fill="#33ADB8"/>
</svg>
