<svg width="70" height="70" viewBox="0 0 70 70" fill="none" xmlns="http://www.w3.org/2000/svg">
<g clip-path="url(#clip0_219_1792)">
<path d="M34.8386 3.42284C30.9897 3.42284 26.5237 4.41295 23.8679 7.48829C22.8086 8.71488 22.1131 10.1018 21.536 11.5931C21.2811 12.2519 21.2418 13.0984 21.1074 13.7963C20.982 14.4472 20.981 15.2217 21.1009 15.8749C21.4518 17.7878 22.4754 19.7944 23.7055 21.2846C24.8659 22.6903 26.4693 23.4468 28.0574 24.2484C28.3083 24.375 28.6514 24.421 28.1483 24.432C27.1116 24.4548 26.0742 24.6604 25.0435 24.7599C22.8646 24.9703 20.9727 25.8969 18.9964 26.7336C15.2584 28.316 13.754 32.3837 12.2152 35.8284C11.0923 38.3421 10.3928 40.9403 9.7015 43.5921C9.33594 44.9944 9 46.5189 9 47.9788C9 48.8296 9.27429 48.569 10.0522 48.746C11.0412 48.971 12.1781 48.9483 13.1895 48.9755C15.0837 49.0265 16.9846 48.9821 18.8794 48.9821C22.8488 48.9821 26.8076 48.9563 30.7725 48.7722C34.1523 48.6154 37.517 48.5932 40.8987 48.5034C45.601 48.3785 50.3026 48.5099 55.0131 48.5099C56.664 48.5099 58.3094 48.628 59.9626 48.628C60.2299 48.628 60.5593 48.7165 60.6511 48.3919C60.8464 47.702 60.7973 46.9488 60.885 46.2412C61.3966 42.1094 60.1261 37.7879 58.5726 34.0579C57.5578 31.6214 56.1059 29.3341 54.1947 27.5139C52.6126 26.0071 50.8592 25.2422 48.8426 24.55C46.6415 23.7946 44.4106 23.5131 42.1069 23.3763C42.0147 23.3708 41.2968 23.4292 41.6197 23.2255C41.8166 23.1013 41.9422 22.7425 42.1134 22.5698C42.6603 22.0176 43.0199 21.2194 43.5423 20.5961C44.3589 19.6218 44.9068 18.1623 45.361 16.9962C46.906 13.0301 46.8648 6.82939 42.9058 4.31462C41.8333 3.63339 40.839 2.93907 39.6711 2.41304C38.1766 1.73994 36.579 1.44792 35.0854 0.819646C33.6884 0.232043 32.3711 0 30.8634 0" stroke="#B2B2B2" stroke-width="2" stroke-linecap="round"/>
</g>
<defs>
<clipPath id="clip0_219_1792">
<rect width="70" height="70" fill="white"/>
</clipPath>
</defs>
</svg>
