<svg width="347" height="347" viewBox="0 0 347 347" fill="none" xmlns="http://www.w3.org/2000/svg">
<path d="M114.531 35.8254C78.5108 50.5892 47.1616 75.1757 37.7473 119.784C31.6115 148.858 31.4919 180.268 32.4324 210.032C33.1352 232.272 41.6145 251.144 53.7544 267.983C64.8912 283.432 83.6279 293.27 99.6498 300.139C124.002 310.579 152.596 312.745 178.497 311.8C194.02 311.234 211.273 307.739 225.956 301.977C244.607 294.657 264.529 289.686 281.981 278.796C297.402 269.174 309.326 253.166 317.121 235.545C323.51 221.104 325 208.001 325 192.011C325 170.79 319.281 150.642 313.87 130.597C308.471 110.596 300.396 91.0495 289.547 73.9883C279.221 57.7503 262.263 46.7931 245.965 39.9244C231.642 33.8879 216.388 31.4233 201.383 28.7581C187.468 26.2868 173.264 21.7762 159.239 20.7015C147.255 19.7832 130.357 14.4954 119.284 21.8323C113.532 25.6431 106.822 27.6415 101.025 32.0091" stroke="#B2B2B2" stroke-width="2" stroke-linecap="round"/>
<path d="M155.37 334.914C127.074 329.744 102.157 314.103 79.0743 296.308C62.0071 283.15 44.6796 270.267 32.7143 251.184C24.1555 237.533 18.3547 222.479 12.3298 207.438C1.6942 180.886 -3.53566 146.454 5.98155 118.882C18.6588 82.1538 50.3532 58.1629 81.9863 41.3557C123.721 19.1812 178.86 4.1455 222.231 29.1972C230.628 34.0473 239.354 39.9269 246.46 46.8082C253.097 53.2368 256.238 62.5373 260.437 70.8118C270.561 90.7596 279.807 113.588 282.22 136.305C284.33 156.179 284.784 175.488 283.268 195.468C281.874 213.839 274.988 231.756 268.358 248.551C259.978 269.78 249.249 287.626 232.948 302.7C223.343 311.583 213.348 319.03 202.021 325.2C188.058 332.805 172.592 334.63 157.234 336.544C138.561 338.87 113.715 344.154 95.673 335.98C83.7218 330.565 73.1727 320.792 64.1063 311.036C50.3795 296.265 38.4359 279.474 30.2099 260.459C20.8634 238.854 21.0291 215.107 19.9012 191.895C17.5937 144.406 26.1245 87.7591 61.4854 55.1436C71.9388 45.5019 85.0358 38.78 97.4203 32.5815C114.02 24.2733 131.242 17.0764 149.08 12.5263C168.631 7.53935 188.814 4.05415 208.836 2.24795C229.289 0.402831 250.705 -0.450149 270.222 7.44978C337.015 34.4852 354.389 123.479 342.558 191.77C334.438 238.633 307.023 281.327 269.989 307.464C241.108 327.846 208.852 338.614 174.706 343.688C156.086 346.455 132.452 348.073 114.485 340.555C103.998 336.166 93.889 329.356 84.1995 323.194C81.0267 321.177 77.3502 318.168 75.6963 314.608" stroke="#B2B2B2" stroke-width="2" stroke-linecap="round"/>
</svg>
