<svg width="208" height="38" viewBox="0 0 208 38" fill="none" xmlns="http://www.w3.org/2000/svg">
<rect x="148.981" y="6.83954" width="19.3707" height="27.1646" transform="rotate(-9.34051 148.981 6.83954)" fill="#FA5D62" style="mix-blend-mode:multiply"/>
<rect x="191.833" y="1.43597" width="19.3707" height="27.1646" transform="rotate(33.4238 191.833 1.43597)" fill="#FDBEC0" style="mix-blend-mode:multiply"/>
<rect x="167.777" width="19.3707" height="27.1646" transform="rotate(11.7468 167.777 0)" fill="#FB8E91" style="mix-blend-mode:multiply"/>
<path fill-rule="evenodd" clip-rule="evenodd" d="M9.16917 27.1828H2.60311V14.301H0V8.86422H2.60311V7.13078C2.60311 2.32439 5.43934 0 9.6354 0C11.5392 0 13.1321 0.315179 14.2977 0.906129V5.87009C13.3264 5.59432 12.5105 5.43673 11.7723 5.43673C10.1016 5.43673 9.16917 6.26406 9.16917 8.27327V8.86422H14.1811V14.2636C15.6994 10.5706 18.926 8.39148 23.3142 8.39148C25.1791 8.39148 27.1994 8.78545 28.9089 10.0461V8.86422H35.475V27.1828H15.4509C13.9868 25.2759 13.2126 22.689 13.2126 19.6195C13.2126 17.6198 13.5432 15.8313 14.1658 14.301H9.16917V27.1828ZM24.9848 24.938C21.6824 24.938 19.8952 22.8894 19.8952 19.5801C19.8952 16.1132 21.7989 14.2222 24.9071 14.2222C26.267 14.2222 27.8988 14.6161 29.0643 15.9162V23.4016C27.8599 24.6229 26.3058 24.938 24.9848 24.938Z" fill="#212121"/>
<path d="M54.4046 27.1828H37.1179L38.358 24.1501C40.3006 25.1744 43.0591 25.8048 45.3514 25.8048C47.3329 25.8048 48.4984 25.332 48.4984 24.2683C48.4984 23.3622 47.6825 23.0076 44.1081 22.1803C39.6012 21.156 36.6096 19.5013 36.6096 15.4041C36.6096 10.5583 40.0675 8.35207 45.2737 8.35207C49.4697 8.35207 52.1117 9.1794 54.404 10.0067L52.2671 15.2071C50.4022 14.2616 47.4883 13.513 45.5068 13.513C44.1081 13.513 43.1368 13.8676 43.1368 14.7737C43.1368 15.6798 43.7973 15.995 47.3717 16.8617C52.306 18.083 55.2199 19.7771 55.2199 23.4804C55.2199 24.9476 54.9341 26.176 54.4046 27.1828Z" fill="#212121"/>
<path d="M62.6984 27.1828H56.0935V0.59095H62.6984V10.1643C64.4467 9.10061 67.0887 8.35207 69.3033 8.35207C75.0146 8.35207 76.6853 10.9916 76.6853 17.3345V30.2601H76.6933C76.6918 30.279 76.6908 30.2981 76.6902 30.3172C76.69 30.3228 76.6899 30.3283 76.6898 30.3339C76.6897 30.3404 76.6897 30.3469 76.6897 30.3534C76.6897 30.9971 77.2043 31.519 77.8391 31.519C78.4739 31.519 78.9885 30.9971 78.9885 30.3534C78.9885 30.3442 78.9884 30.3351 78.9882 30.3259C78.988 30.3159 78.9876 30.3059 78.9871 30.296H78.9684V8.86422H85.3402V10.1643C87.3994 9.02181 89.8471 8.31268 91.7897 8.31268C94.7814 8.31268 96.6463 9.02181 97.773 10.6371C99.871 9.2582 102.863 8.31268 105.388 8.31268C111.216 8.31268 112.887 10.9523 112.887 17.3345V27.1828H106.204V18.5952C106.204 15.6011 105.543 14.2616 102.863 14.2616C101.503 14.2616 100.143 14.6949 99.094 15.4041C99.1717 15.9949 99.1717 16.6646 99.1717 17.3342V17.3345L99.2012 27.1828H92.6056V18.5952C92.6056 15.6011 91.9451 14.2616 89.4975 14.2616C88.0599 14.2616 86.6612 14.7737 85.6122 15.5616V30.296H85.6068C85.5026 34.5687 82.0545 38 77.8161 38C73.5658 38 70.1103 34.5495 70.0246 30.2601H70.0415V18.6346C70.0415 15.6404 69.381 14.301 66.739 14.301C65.2238 14.301 63.7474 14.8131 62.6984 15.5616V27.1828Z" fill="#212121"/>
<path fill-rule="evenodd" clip-rule="evenodd" d="M136.37 27.1828V8.86422H129.804V10.0461C128.094 8.78545 126.074 8.39148 124.209 8.39148C117.993 8.39148 114.107 12.7645 114.107 19.6195C114.107 22.689 114.882 25.2759 116.346 27.1828H136.37ZM125.88 24.938C122.577 24.938 120.79 22.8894 120.79 19.5801C120.79 16.1132 122.694 14.2222 125.802 14.2222C127.162 14.2222 128.794 14.6161 129.959 15.9162V23.4016C128.755 24.6229 127.201 24.938 125.88 24.938Z" fill="#212121"/>
<path fill-rule="evenodd" clip-rule="evenodd" d="M148.811 37.8601C157.552 37.8601 160 32.6598 160 25.4896V8.86422H153.473V10.0461C151.724 8.74604 149.626 8.35207 147.761 8.35207C141.467 8.35207 137.738 12.7251 137.738 19.068C137.738 25.0562 141.234 29.3899 148.072 29.3899C149.704 29.3899 152.035 28.8777 153.201 27.7352V28.4049C153.201 31.2809 151.375 32.4234 147.451 32.4234C144.925 32.4234 142.4 31.8324 140.069 30.9657V36.757C141.623 37.3086 144.576 37.8601 148.811 37.8601ZM149.238 23.6774C146.246 23.6774 144.42 21.7863 144.42 19.1073C144.42 15.995 146.557 14.2222 149.432 14.2222C150.792 14.2222 152.424 14.6161 153.589 15.995V22.2197C152.424 23.3622 150.831 23.6774 149.238 23.6774Z" fill="#212121"/>
</svg>
