<svg width="400" height="332" viewBox="0 0 400 332" fill="none" xmlns="http://www.w3.org/2000/svg">
<path d="M80.9973 38.8125C77.1537 40.4883 73.5013 42.1051 69.806 44.0171C67.4002 45.262 65.2763 47.1883 63.0912 48.8214C62.0026 49.6351 60.59 50.8097 59.7587 51.8741C58.8457 53.0433 57.5217 53.252 56.4759 54.2262C54.9501 55.6477 53.18 57.3506 52.0989 59.1306C44.1981 72.1386 37.187 86.0561 35.4362 101.518C34.4423 110.296 34.2424 118.532 35.2373 127.291C35.9847 133.871 36.533 140.339 39.3656 146.458C41.4924 151.053 43.4566 155.51 45.8815 159.946C48.7954 165.276 54.9552 168.932 59.9577 171.906C70.7555 178.326 83.3123 181.956 95.6704 183.491C102.054 184.284 107.663 184.178 114.074 183.491C117.822 183.09 121.522 181.285 124.967 179.788C131.202 177.079 137.411 171.99 141.43 166.501C150.77 153.748 155.755 136.188 155.755 120.435C155.755 97.7455 151.687 74.1396 136.531 56.6034C132.97 52.483 128.784 49.8471 123.748 47.8205C117.501 45.3064 111.6 42.5294 104.947 41.2897C100.91 40.5376 96.9829 40.6141 92.885 40.6141C90.755 40.6141 76.9826 42.4715 75.8335 44.3984" stroke="#B2B2B2" stroke-width="2" stroke-linecap="round"/>
<path d="M95.3321 68.8336C90.2748 70.4797 84.69 71.7007 79.9087 74.0628C75.4377 76.2715 73.0501 78.9471 69.6264 82.4294C64.6496 87.4914 62.9429 96.5504 62.9429 103.375C62.9429 110.329 67.4717 115.263 71.1687 120.486C75.3599 126.407 83.9937 127.386 90.3052 129.608C93.0917 130.589 93.2463 131.938 94.7038 133.791C95.9472 135.372 92.4834 138.473 92.276 139.95C91.8536 142.957 97.3841 140.847 94.818 143.61C93.1951 145.358 91.8332 148.317 95.0751 148.317C95.7968 148.317 93.7898 150.843 93.7898 151.977C93.7898 154.519 95.8993 155.073 98.1598 154.562C101.106 153.897 101.545 154.913 102.93 157.729C103.715 159.326 104.931 161.946 106.9 160.344C108.634 158.932 109.144 157.282 108.728 155.376C108.16 152.776 110.508 151.267 112.698 150.524C114.434 149.936 117.562 148.364 116.896 145.992C116.478 144.504 111.04 145.077 113.84 143.494C115.047 142.812 117.539 137.637 114.869 137.335C113.798 137.214 112.803 136.934 111.784 136.812C110.703 136.683 112.478 135.93 112.812 135.505C114.134 133.825 116.925 133.802 116.925 131.06C116.925 128.911 116.105 127.946 114.126 127.371C113.932 127.315 116.791 122.982 117.211 122.432C119.246 119.771 121.524 117.134 122.694 113.92C123.375 112.051 124.771 110.53 125.265 108.575C125.861 106.219 126.397 103.852 126.95 101.487C127.965 97.1527 127.108 90.9338 125.779 86.7289C122.907 77.6397 116.564 72.9728 108.071 69.3565C104.092 67.6625 100.107 66.6715 95.8462 66.19C93.3037 65.9027 87.4351 65.4531 80.5601 70.1797" stroke="#B2B2B2" stroke-width="2" stroke-linecap="round"/>
<path d="M77.805 103.284C79.837 108.659 84.4742 107.038 82.4915 101.794C82.1038 100.768 78.7552 101.834 78.641 102.718C78.4704 104.039 79.1276 107.009 80.6027 107.29C82.0299 107.561 83.4174 107.425 84.4836 108.761C85.8939 110.526 87.3955 112.031 88.7582 113.896C89.8422 115.379 91.2948 117.819 92.6439 118.928C93.7892 119.869 94.4775 122.079 96.0113 122.28" stroke="#B2B2B2" stroke-width="2" stroke-linecap="round"/>
<path d="M95.092 127.718C90.8992 123.362 95.1262 122.433 99.7323 121.362C101.553 120.938 105.268 118.894 107.039 120.092C108.823 121.298 107.348 125.464 108.761 122.122C109.433 120.533 109.517 117.215 109.308 115.509C108.635 109.992 109.551 104.187 108.894 98.802C108.365 94.4693 100.952 95.86 101.517 100.488C101.725 102.194 105.178 104.354 106.188 102.274C107.139 100.319 108.439 99.5116 108.14 97.0612C107.958 95.5728 103.749 95.1731 102.52 95.3906C101.041 95.6523 99.0091 102.115 98.6529 103.398C97.8876 106.154 95.1974 93.4934 94.065 96.1317C92.9302 98.7757 93.1666 101.933 92.2824 104.699C91.5638 106.947 90.0046 101.157 89.1487 101.212C86.951 101.354 86.7744 103.296 85.1944 104.313" stroke="#B2B2B2" stroke-width="2" stroke-linecap="round"/>
<path d="M154.037 49.125C157.2 41.5307 163.282 35.7579 166.927 28.5" stroke="#B2B2B2" stroke-width="2" stroke-linecap="round"/>
<path d="M133.412 30.2187C133.808 25.8148 133.96 20.8709 135.468 16.6502C135.951 15.2999 135.67 13.8989 136.291 12.5469C137.38 10.1775 138.588 7.76196 139.427 5.29688" stroke="#B2B2B2" stroke-width="2" stroke-linecap="round"/>
<path d="M87.0054 22.4844C85.2338 15.3327 85.2868 8.30603 85.2868 1" stroke="#B2B2B2" stroke-width="2" stroke-linecap="round"/>
<path d="M44.0366 43.9687C41.4126 38.791 39.0948 33.1594 36.0672 28.2036C35.2114 26.8027 33.3805 23.1494 32.0054 22.4844" stroke="#B2B2B2" stroke-width="2" stroke-linecap="round"/>
<path d="M156.627 117.303C166.204 116.655 175.78 116.007 185.356 115.359C188.437 115.15 191.518 114.942 194.599 114.733C196.005 114.638 198.363 114.978 199.49 113.957C199.764 113.709 198.733 112.031 198.736 112.077C198.85 113.771 199.072 115.215 199.484 116.829C199.958 118.686 199.278 118.862 201.439 118.281C203.346 117.769 205.262 117.16 207.145 116.558C208.901 115.997 210.682 115.193 212.476 114.861C215.183 114.359 210.327 114.039 209.694 113.811C208.778 113.481 207.569 113.6 206.603 113.376C205.466 113.114 204.493 112.423 203.272 112.364C201.77 112.292 200.346 111.671 198.716 111.781" stroke="#B2B2B2" stroke-width="2" stroke-linecap="round"/>
<path d="M50.9116 201.234C54.5606 200.294 58.5223 200.924 62.0835 199.516" stroke="#B2B2B2" stroke-width="2" stroke-linecap="round"/>
<path d="M56.0679 201.234C56.0679 204.324 56.2543 207.258 56.4737 210.31C56.5975 212.033 55.97 214.364 56.9272 215.844" stroke="#B2B2B2" stroke-width="2" stroke-linecap="round"/>
<path d="M52.6304 216.703C56.09 216.703 59.5789 216.65 62.9429 215.844" stroke="#B2B2B2" stroke-width="2" stroke-linecap="round"/>
<path d="M83.7921 198.656C81.7978 199.786 79.5102 200.983 78.075 202.671C76.5927 204.415 75.5993 206.25 75.086 208.422C74.4141 211.265 76.8896 211.547 79.2612 211.547C81.3976 211.547 83.5516 210.066 85.2866 209.008" stroke="#B2B2B2" stroke-width="2" stroke-linecap="round"/>
<path d="M80.1304 208.142C80.9596 208.024 81.8007 207.971 82.6244 207.795C83.4025 207.628 84.4149 207.099 85.2086 207.291C85.4116 207.341 85.1545 208.79 85.1545 209.053C85.1545 210.905 85.1545 216.464 85.1545 214.611" stroke="#B2B2B2" stroke-width="2" stroke-linecap="round"/>
<path d="M90.6629 201.234C90.4428 203.746 90.4214 206.268 90.4563 208.789C90.4686 209.679 90.5712 210.835 91.3862 211.38C92.2684 211.97 94.7856 210.832 95.7141 210.55C97.7366 209.938 99.6597 208.859 101.615 208.075" stroke="#B2B2B2" stroke-width="2" stroke-linecap="round"/>
<path d="M89.5835 206.391C92.2202 206.079 94.8611 205.842 97.3179 204.672" stroke="#B2B2B2" stroke-width="2" stroke-linecap="round"/>
<path d="M90.4429 202.094C93.8692 201.392 97.3719 201.309 100.755 200.375" stroke="#B2B2B2" stroke-width="2" stroke-linecap="round"/>
<path d="M105.052 200.375C107.7 200.375 110.522 200.018 113.095 199.349C114.439 198.999 115.753 198.973 117.083 198.656" stroke="#B2B2B2" stroke-width="2" stroke-linecap="round"/>
<path d="M111.068 199.516C111.068 202.675 111.068 205.818 111.068 208.969" stroke="#B2B2B2" stroke-width="2" stroke-linecap="round"/>
<path d="M129.115 198.656C130.158 201.234 129.959 203.773 129.959 206.391" stroke="#B2B2B2" stroke-width="2" stroke-linecap="round"/>
<path d="M133.412 198.656C135.708 198.031 138.006 197.932 140.348 197.582C141.837 197.359 144.099 197.669 145.443 196.938" stroke="#B2B2B2" stroke-width="2" stroke-linecap="round"/>
<path d="M139.427 197.797C139.692 200.345 140.287 203.007 140.287 205.531" stroke="#B2B2B2" stroke-width="2" stroke-linecap="round"/>
<path d="M151.458 185.766C151.458 188.29 151.512 190.782 151.721 193.301C151.986 196.491 151.828 199.688 152.055 202.88C152.229 205.318 151.496 208.343 152.318 210.688" stroke="#B2B2B2" stroke-width="2" stroke-linecap="round"/>
<path d="M152.732 214.125C151.485 214.456 150.675 215.238 150.601 216.739C150.555 217.655 151.552 217.733 152.199 217.332C152.564 217.107 153.158 216.993 153.158 216.382C153.158 215.686 153.35 214.838 152.519 214.838" stroke="#B2B2B2" stroke-width="2" stroke-linecap="round"/>
<path d="M93.021 137.641C96.6667 135.358 100.53 133.295 104.451 131.631C106.163 130.903 107.616 129.673 109.349 129.047" stroke="#B2B2B2" stroke-width="2" stroke-linecap="round"/>
<path d="M98.1772 141.938C101.359 139.463 105.281 138.299 108.49 135.922" stroke="#B2B2B2" stroke-width="2" stroke-linecap="round"/>
<path d="M95.5991 150.531C100.594 148.707 105.428 147.108 110.142 144.682C111.27 144.101 113.215 142.797 114.505 142.797" stroke="#B2B2B2" stroke-width="2" stroke-linecap="round"/>
<path d="M261.172 13.8906C258.438 14.9969 256.06 16.0224 254.369 18.4639C252.89 20.5986 252.436 22.5592 251.683 24.9659C250.801 27.7857 250.462 30.7487 249.555 33.5755C248.062 38.2265 246.315 43.3938 245.775 48.2497C245.265 52.839 244.453 57.6017 243.547 62.1285C242.769 66.0147 241.387 70.0734 241.14 74.019C240.88 78.1824 240.021 82.4175 239.409 86.5457C238.639 91.7448 237.796 97.0536 237.181 102.274C236.159 110.96 233.458 119.52 232.089 128.142C230.579 137.646 228.792 147.115 227.434 156.616C225.807 167.995 222.791 179.21 221.346 190.617C220.591 196.585 219.4 202.627 218.362 208.552C217.963 210.834 217.531 213.07 217.487 215.392C217.442 217.785 216.465 220.096 216.413 222.471C216.23 230.858 213.875 239.501 212.315 247.743C210.979 254.804 210.16 262.149 209.59 269.277C209.086 275.566 208.177 281.7 208.177 288.027C208.177 289.926 208.535 291.639 208.535 293.495C208.535 295.418 209.554 296.836 209.948 298.605C210.363 300.471 212.489 301.274 213.906 302.185C217.567 304.537 221.213 305.358 225.444 306.221C230.872 307.328 236.268 308.006 241.816 308.468C248.631 309.035 255.356 310.144 262.167 310.874C274.075 312.149 285.781 315.156 297.735 316.242C302.858 316.708 308.343 317.629 313.391 318.668C320.407 320.112 327.709 322.406 334.935 322.406C338.728 322.406 342.521 322.406 346.314 322.406C347.81 322.406 351.803 322.358 352.819 321.173C353.834 319.99 355.008 318.868 356.061 317.753C357.396 316.341 357.831 314.928 358.747 313.28C359.633 311.685 360.308 308.154 360.358 306.3C360.466 302.298 361.074 298.364 361.074 294.33C361.074 282.992 362.351 271.394 363.76 260.13C364.146 257.04 364.152 253.686 364.814 250.666C365.349 248.227 366.066 245.777 366.445 243.309C367.152 238.718 368.614 234.075 369.668 229.549C371.337 222.385 371.247 214.938 372.374 207.697C373.288 201.82 373.945 195.892 374.602 189.981C375.325 183.477 376.371 176.993 376.83 170.455C377.131 166.162 377.668 161.833 378.262 157.57C378.712 154.34 378.516 151.003 379.336 147.827C379.912 145.598 379.888 143.208 380.251 140.928C380.711 138.039 381.485 135.11 381.485 132.179C381.485 126.74 382.788 121.146 383.354 115.735C384.001 109.557 384.258 103.152 385.503 97.0841C385.859 95.3493 386.178 93.7812 386.657 92.0734C387.204 90.1187 386.937 87.9587 387.413 85.9889C389.389 77.8029 390.34 69.1157 391.172 60.7963C391.724 55.2794 392.943 50.0522 392.943 44.4718C392.943 40.33 391.501 37.856 388.447 35.0071C386.008 32.7317 382.015 31.5107 378.819 31.0701C374.141 30.4252 369.247 30.0132 364.576 29.2011C353.593 27.2919 342.401 27.2402 331.354 25.7015C323.318 24.5822 315.139 24.1857 307.165 22.6593C299.609 21.2132 291.802 20.2693 284.168 19.3388C279.008 18.7097 273.748 17.2825 268.632 16.217C266.647 15.8038 264.642 15.5283 262.684 14.9643C260.747 14.4065 258.739 14.5118 256.875 13.8906" stroke="#B2B2B2" stroke-width="2" stroke-linecap="round"/>
<path d="M390.203 35.375C391.821 36.5997 395.401 38.5749 396.283 40.5583C396.764 41.642 397.998 42.6511 398.071 43.9542C398.135 45.1107 398.071 46.2911 398.071 47.4494C398.071 55.9639 396.292 64.2764 394.773 72.631C390.998 93.3827 390.198 114.453 386.905 135.188C385.758 142.412 385.096 149.668 383.607 156.894C383.051 159.597 382.955 162.359 382.415 165.056C381.717 168.548 380.626 172.188 380.548 175.78C380.506 177.725 379.833 179.677 379.833 181.579C379.833 183.373 379.776 185.929 379.296 187.656C378.788 189.484 378.814 191.834 378.76 193.733C378.694 196.026 378.161 198.535 377.767 200.803C376.889 205.847 376.73 211.334 375.363 216.253C374.053 220.965 374.504 226.155 373.475 230.909C372.971 233.241 373.062 235.834 372.681 238.218C372.374 240.133 371.965 242.206 371.965 244.136C371.965 248.88 370.309 253.55 370.177 258.275C370.128 260.068 369.718 261.871 369.482 263.637C369.173 265.958 369.386 269.149 368.548 271.303C367.007 275.264 367.428 280.25 366.681 284.45C365.9 288.839 366.678 293.883 365.35 298.133C363.838 302.968 364.45 308.419 362.668 313.206C362.147 314.606 362.251 316.165 361.933 317.595C361.638 318.92 360.928 320.209 360.522 321.527C360.201 322.57 359.471 324.501 358.734 325.281C357.747 326.326 356.192 327.331 355.436 328.498C354.848 329.407 352.746 329.982 351.761 330.285C350.149 330.781 348.425 331 346.735 331C342.582 331 338.229 330.966 334.139 330.206C330.419 329.514 326.569 329.139 322.775 328.835C316.105 328.302 309.484 327.127 302.868 326.273C287.332 324.269 271.724 323.167 256.181 320.911C252.598 320.392 249.136 319.203 245.592 318.528C241.532 317.755 237.313 316.968 233.434 315.45C229.587 313.946 225.588 312.057 222.05 309.909C216.985 306.836 212.474 304.37 212.474 297.756" stroke="#B2B2B2" stroke-width="2" stroke-linecap="round"/>
<path d="M322.975 29.5358C318.971 30.235 315.601 29.4253 311.674 29.2097C310.326 29.1357 306.228 28.0299 305.445 29.5358C304.206 31.9165 310.621 32.9885 312.013 32.9885C313.327 32.9885 314.56 33.6307 315.867 33.679C317.593 33.7428 320.343 34.2453 321.916 34.9066C324.168 35.853 326.8 35.6917 329.164 36.3644C331.273 36.9647 333.512 37.1417 335.633 37.7455C337.141 38.1749 341.541 38.1249 340.305 35.7506C339.319 33.8567 335.397 33.7877 333.576 32.8158C332.532 32.2587 330.935 32.7045 329.803 32.2212C328.439 31.639 326.657 31.8081 325.311 31.0895C324.079 30.432 322.125 30.2977 320.738 29.8043C319.194 29.2547 317.477 28.5 315.787 28.5" stroke="#B2B2B2" stroke-width="2" stroke-linecap="round"/>
<path d="M268.994 21.1194C268.018 21.292 263.616 21.2847 263.236 23.0651C263.02 24.0782 263.463 24.8839 263.557 25.7184C263.775 27.6507 266.815 28.1836 267.899 27.0549C271.506 23.2996 266.796 20.7656 263.217 20.7656" stroke="#B2B2B2" stroke-width="2" stroke-linecap="round"/>
<path d="M272.568 34.1212C268.683 34.1212 264.589 30.9475 260.811 32.2522C259.24 32.795 257.89 34.0589 257.224 35.5527C256.801 36.503 255.766 38.538 255.71 39.4895C255.621 40.9972 254.688 42.7485 254.196 44.2215C253.532 46.2097 253.034 48.362 252.562 50.4248C251.332 55.7937 250.246 61.3696 248.616 66.6092C247.79 69.2667 247.869 72.2787 247.022 74.9996C246.496 76.6927 245.731 79.3084 245.667 81.0836C245.564 83.9571 244.311 86.7129 244.233 89.5934C244.155 92.4705 243.42 95.7411 242.718 98.5405C239.452 111.576 237.656 124.856 234.827 137.908C232 150.955 229.42 164.109 226.737 177.196C225.359 183.918 223.675 190.884 223.43 197.754C223.365 199.552 222.898 201.61 222.632 203.401C222.319 205.512 222.125 207.678 221.716 209.763C221.036 213.231 220.888 216.929 219.922 220.301C219.114 223.125 219.125 227.03 219.125 229.964C219.125 233.775 218.408 237.593 218.408 241.416C218.408 247.238 216.21 253.851 219.205 259.231C220.211 261.037 224.168 262.022 225.94 262.889C230.88 265.307 237.13 264.543 242.439 265.673C249.198 267.111 256.294 268.221 263.163 268.973C269.516 269.669 275.763 270.944 282.132 271.478C293.121 272.4 304.021 274.195 314.891 275.773C321.875 276.787 328.87 278.109 335.774 279.551C338.658 280.153 341.759 281.259 344.661 281.42C348.057 281.608 353.2 283.62 354.983 278.994C355.307 278.152 356.09 277.642 356.139 276.767C356.176 276.103 356.673 274.884 356.936 274.262C357.811 272.188 358.583 269.708 358.649 267.462C358.723 264.953 359.454 261.979 360.004 259.509C360.975 255.15 361.789 250.777 362.515 246.347C364.586 233.719 367.432 221.262 367.616 208.411C367.695 202.872 368.358 197.176 368.971 191.67C369.639 185.671 369.678 179.665 370.406 173.696C372.061 160.117 373.17 146.464 374.869 132.897C375.506 127.817 376.348 122.735 377.221 117.707C377.799 114.373 379.017 110.784 379.094 107.408C379.291 98.762 381.418 90.1442 382.401 81.5608C383.32 73.5436 385.191 65.4755 385.191 57.3837C385.191 55.9787 385.452 54.273 383.956 53.5265C380.821 51.9626 377.405 51.4717 374.072 50.4248C369.885 49.1096 365.468 48.8096 361.24 47.7208C358.593 47.0393 355.662 46.7157 352.95 46.3688C350.792 46.0927 348.543 45.6422 346.375 45.5735C340.873 45.3992 335.28 43.7409 329.836 42.9888C326.861 42.5777 323.979 41.8333 321.028 41.3584C318.713 40.9858 316.115 40.9592 313.895 40.2052C309.971 38.8725 305.524 39.4714 301.461 39.052C296.859 38.5771 291.761 38.455 287.273 37.4217C284.121 36.6957 280.374 35.9854 277.151 35.9106C274.42 35.8473 271.729 34.837 268.981 34.837" stroke="#B2B2B2" stroke-width="2" stroke-linecap="round"/>
<path d="M269.978 47.1198C267.883 47.1198 264.975 46.5731 263.036 47.6569C261.886 48.2993 260.87 49.0131 259.832 49.8252C257.686 51.5035 257.162 54.8927 257.162 57.4243C257.162 65.815 265.207 67.1719 271.936 67.1719C274.294 67.1719 276.817 64.0259 277.533 62.0793C278.247 60.1414 280.441 56.5095 279.056 54.2813C277.663 52.039 277.663 49.8305 274.962 48.4725C272.841 47.4057 270.291 46.74 268.198 45.6875" stroke="#B2B2B2" stroke-width="2" stroke-linecap="round"/>
<path d="M271.771 52.5625C271.066 53.0039 263.824 56.1016 264.041 56.798C264.41 57.9817 264.876 59.8635 265.916 60.5833C266.404 60.921 267.472 62.3426 267.638 62.875" stroke="#B2B2B2" stroke-width="2" stroke-linecap="round"/>
<path d="M332.423 58.5781C329.625 60.0442 326.705 61.3164 324.14 63.0716C323.503 63.5079 320.371 66.6034 322.16 65.4911C323.418 64.7092 324.873 64.0041 326.322 63.494C328.342 62.7828 328.135 64.4203 328.443 66.0288C328.67 67.2123 329.003 68.3729 329.514 69.4661C330.01 70.5264 329.865 68.298 329.958 67.9875C330.173 67.273 330.522 66.5416 330.787 65.8368C331.524 63.8752 332.787 61.3432 332.787 59.2694" stroke="#B2B2B2" stroke-width="2" stroke-linecap="round"/>
<path d="M344.388 62.875C342.296 63.3904 340.521 64.1502 340.521 66.672C340.521 68.3981 342.244 69.8392 343.744 69.7457C345.61 69.6293 345.677 67.1197 345.677 65.5871C345.677 63.3938 344.292 63.5982 342.777 63.5982" stroke="#B2B2B2" stroke-width="2" stroke-linecap="round"/>
<path d="M369.301 58.9061C364.68 58.1017 359.207 56.4559 355.257 59.4133C353.51 60.7212 351.88 63.386 351.792 65.4996C351.634 69.292 351.401 71.5607 353.433 75.0387C354.517 76.8931 355.909 77.3976 357.649 78.5695C360.652 80.5935 363.564 80.7538 366.829 81.6517C368.758 82.1824 373.513 81.0344 374.408 79.0962C374.849 78.1399 375.513 77.1103 376.07 76.2677C377.023 74.8254 376.849 72.8137 377.245 71.1957C378.822 64.7446 371.928 61.2521 366.748 59.2573" stroke="#B2B2B2" stroke-width="2" stroke-linecap="round"/>
<path d="M365.631 63.5809C363.64 63.5809 359.71 63.8256 361.377 66.7577C361.965 67.792 362.214 66.7463 361.461 67.9734C361.044 68.6526 359.631 68.7005 359.187 69.4245C358.744 70.1459 356.742 74.5379 358.281 74.8563C359.32 75.0712 360.989 74.523 362.135 74.523C363.849 74.523 365.505 74.7909 367.148 74.8759C368.103 74.9253 368.734 74.7243 369.612 74.5426C370.895 74.2772 370.56 73.8473 370.56 72.562C370.56 70.9168 369.719 68.9565 367.716 68.5421C365.363 68.0552 367.906 67.9361 367.906 66.2282C367.906 64.4347 366.42 63.5951 364.873 62.875" stroke="#B2B2B2" stroke-width="2" stroke-linecap="round"/>
<path d="M270.052 86.5498C263.724 85.3294 257.339 86.3705 252.724 90.9306C248.41 95.1945 245.868 100.67 245.007 106.622C244.648 109.109 242.794 111.573 242.207 114.069C241.752 116.001 241.398 117.958 240.857 119.884C239.476 124.797 238.792 129.866 237.693 134.858C235.295 145.76 233.359 156.748 231.246 167.714C230.086 173.734 228.523 179.986 227.075 185.994C226.305 189.193 226.876 192.75 225.987 195.911C225.186 198.761 225.988 201.98 225.262 204.852C224.303 208.641 224.317 212.589 223.549 216.381C222.658 220.783 221.946 225.797 221.816 230.281C221.701 234.269 220.753 238.113 220.386 242.109C220.204 244.084 220.003 246.155 220.003 248.122C220.003 249.182 220.264 250.665 219.822 251.627C219.08 253.24 219.266 258.215 220.003 259.672" stroke="#B2B2B2" stroke-width="2" stroke-linecap="round"/>
<path d="M270.052 85.2188C278.051 86.315 286.294 86.1656 294.167 87.8766C296.397 88.3613 298.765 88.2686 301.034 88.7096C303.618 89.212 306.256 89.3723 308.859 89.7807C311.135 90.1377 313.409 90.4477 315.686 90.8517C318.035 91.2685 320.197 92.1681 322.513 92.6368C330.788 94.3116 338.894 97.406 347.286 98.4483C350.438 98.8398 353.401 100.718 356.569 100.928C358.513 101.056 361.97 102.734 363.555 103.784C366.768 105.912 368.931 108.088 370.482 111.48C371.658 114.049 373.177 116.971 373.177 119.929C373.177 124.365 373.177 128.802 373.177 133.238C373.177 138.196 372.277 143.019 372.099 147.975C371.798 156.37 369.225 164.614 369.225 173.046C369.225 175.064 368.865 176.97 368.865 178.956C368.865 180.314 368.291 181.681 368.167 183.042C368.036 184.47 368.132 186.151 367.608 187.505C367.276 188.362 367.695 189.365 367.348 190.183C366.852 191.354 366.777 193.192 366.709 194.467C366.512 198.193 365.018 201.962 364.913 205.733C364.73 212.279 362.866 218.793 362.378 225.349C361.882 232.003 359.675 238.58 359.523 245.243C359.442 248.789 358.086 252.313 358.086 255.874C358.086 259.581 356.665 263.668 355.93 267.319C355.123 271.33 354.852 275.336 354.852 279.437" stroke="#B2B2B2" stroke-width="2" stroke-linecap="round"/>
<path d="M264.037 102.406C265.632 102.661 267.108 103.305 268.681 103.658C269.366 103.812 270.333 103.537 270.97 103.852C271.945 104.333 275.198 104.032 274.14 104.032" stroke="#B2B2B2" stroke-width="2" stroke-linecap="round"/>
<path d="M269.193 104.125C268.903 105.495 268.942 107.046 268.356 108.33C267.964 109.188 266.956 112.327 267.805 112.719" stroke="#B2B2B2" stroke-width="2" stroke-linecap="round"/>
<path d="M275.208 106.703C274.737 108.701 273.49 110.68 273.49 112.719" stroke="#B2B2B2" stroke-width="2" stroke-linecap="round"/>
<path d="M284.714 108.425C283.265 108.425 281.822 108.354 280.464 108.893C279.18 109.403 278.609 110.191 277.953 111.262C276.546 113.56 284.503 112.452 285.521 112.452" stroke="#B2B2B2" stroke-width="2" stroke-linecap="round"/>
<path d="M288.682 108.422C288.454 109.671 288.042 110.864 287.577 112.056C287.407 112.492 287.514 112.921 287.306 113.341C287.013 113.934 287.781 113.238 287.892 113.149C288.522 112.647 289.217 112.185 289.9 111.742C290.838 111.133 291.995 110.788 292.944 110.203C293.477 109.876 294.302 109.333 294.974 109.333" stroke="#B2B2B2" stroke-width="2" stroke-linecap="round"/>
<path d="M290.677 111.859C291.835 112.545 293.285 112.844 294.267 113.759C295 114.442 295.996 114.647 296.693 115.297" stroke="#B2B2B2" stroke-width="2" stroke-linecap="round"/>
<path d="M299.76 111C299.452 112.765 299.119 114.677 299.346 116.478C299.434 117.182 303.163 116.843 303.692 116.843C304.041 116.843 305.799 117.231 305.14 116.843" stroke="#B2B2B2" stroke-width="2" stroke-linecap="round"/>
<path d="M299.271 112.719C300.732 112.719 302.101 113.578 303.568 113.578" stroke="#B2B2B2" stroke-width="2" stroke-linecap="round"/>
<path d="M299.271 110.141H307.865" stroke="#B2B2B2" stroke-width="2" stroke-linecap="round"/>
<path d="M307.865 112.719C311.014 112.719 314.195 112.719 317.318 112.719" stroke="#B2B2B2" stroke-width="2" stroke-linecap="round"/>
<path d="M313.021 112.719C312.308 114.845 311.302 117.349 311.302 119.594" stroke="#B2B2B2" stroke-width="2" stroke-linecap="round"/>
<path d="M275.208 127.328C276.683 127.881 278.316 127.731 279.864 127.904C280.922 128.022 282.105 128.081 283.161 128.11C284.764 128.154 286.306 128.568 287.892 128.686C289.242 128.787 290.597 128.857 291.933 129.131C299.093 130.604 306.39 131.264 313.571 132.607C317.82 133.402 322.131 133.702 326.372 134.606C327.462 134.839 328.766 135.151 329.81 135.54C330.862 135.933 332.3 136.621 333.398 136.714C333.844 136.751 336.861 137.601 336.89 138.082C336.942 138.973 337.083 139.677 337.083 140.581C337.083 144.339 336.507 148.068 335.963 151.77C335.12 157.505 333.835 163.186 332.859 168.868C332.269 172.305 331.71 175.751 331.071 179.188C330.4 182.792 329.86 186.546 328.98 190.094C328.643 191.453 328.496 192.828 328.118 194.2C327.932 194.876 327.274 196.602 326.609 196.937" stroke="#B2B2B2" stroke-width="2" stroke-linecap="round"/>
<path d="M274.042 128.188C273.996 130.101 273.078 131.829 272.874 133.662C272.669 135.491 272.12 137.295 271.727 139.094C270.551 144.474 269.788 149.958 268.538 155.323C266.395 164.523 264.41 173.966 264.41 183.436C264.41 184.591 263.683 186.745 264.258 187.825C264.457 188.199 265.287 188.287 265.634 188.411C267.091 188.936 268.689 189.052 270.22 189.193C274.777 189.615 279.325 190.442 283.87 190.91C288.199 191.355 292.503 192.207 296.843 192.539C298.743 192.685 300.69 193.196 302.554 193.593C304.552 194.019 306.652 194.078 308.681 194.321C311.597 194.67 314.567 195.251 317.46 195.755C319.814 196.164 322.153 196.826 324.515 197.167C325.774 197.349 327.227 197.797 328.49 197.797" stroke="#B2B2B2" stroke-width="2" stroke-linecap="round"/>
<path d="M290.755 146.53C289.884 146.563 288.756 146.622 288.045 147.187C287.417 147.685 287.211 148.332 286.736 148.925C285.915 149.95 285.521 152.111 285.521 153.398C285.521 154.495 285.609 155.542 285.698 156.631C285.83 158.256 286.366 159.224 287.193 160.543C288.207 162.16 291.072 163.053 292.801 162.281C296.506 160.627 297.491 154.758 296.073 151.204C295.423 149.575 294.548 148.23 293.144 147.293C292.558 146.902 290.568 145.506 290.568 146.72" stroke="#B2B2B2" stroke-width="2" stroke-linecap="round"/>
<path d="M291.537 154.828C293.463 156.675 295.45 158.319 297.792 159.721C298.117 159.916 300.698 161.95 300.99 161.678" stroke="#B2B2B2" stroke-width="2" stroke-linecap="round"/>
<path d="M303.617 144.516C303.617 147.978 303.506 151.454 303.617 154.878C303.635 155.427 303.754 156.101 303.906 156.572C304.034 156.967 304.237 158.102 304.427 158.266" stroke="#B2B2B2" stroke-width="2" stroke-linecap="round"/>
<path d="M302.708 144.684C304.834 144.398 306.972 144.264 309.09 143.931C309.7 143.835 311.308 143.452 311.821 143.799C313.593 144.995 309.696 146.631 308.964 146.962C307.527 147.613 305.783 148.689 304.21 148.865C303.834 148.907 303.494 149.159 303.991 149.385C305.166 149.919 306.514 149.831 307.755 150.071C309.119 150.334 310.479 150.645 311.832 150.967C314.167 151.522 316.623 152.25 319.037 152.25" stroke="#B2B2B2" stroke-width="2" stroke-linecap="round"/>
<path d="M286.928 172.875C285.015 173.561 281.097 175.017 282.313 177.962C282.781 179.096 284.81 179.024 285.738 178.625C286.776 178.178 287.993 177.765 288.958 177.245" stroke="#B2B2B2" stroke-width="2" stroke-linecap="round"/>
<path d="M292.36 172.397C291.343 173.172 291.049 173.723 290.712 174.77C290.42 175.68 292.036 176.022 292.767 176.141C294.792 176.473 297.642 176.503 298.325 174.529C298.856 172.995 296.812 172.592 295.645 172.323C294.641 172.092 292.735 171.814 291.797 172.23" stroke="#B2B2B2" stroke-width="2" stroke-linecap="round"/>
<path d="M299.271 170.297C299.48 171.509 299.811 172.585 300.13 173.734" stroke="#B2B2B2" stroke-width="2" stroke-linecap="round"/>
<path d="M298.412 170.411C299.97 170.411 304.754 169.615 303.294 172.23C302.664 173.358 301.144 173.595 300.555 174.594" stroke="#B2B2B2" stroke-width="2" stroke-linecap="round"/>
<path d="M306.147 168.578C306.147 170.706 306.03 171.856 308.194 172.603C309.128 172.925 310.64 173.052 311.493 172.464C311.966 172.139 312.489 171.639 313.021 171.461" stroke="#B2B2B2" stroke-width="2" stroke-linecap="round"/>
<path d="M306.146 172.016C307.652 171.423 310.134 170.801 311.302 169.438" stroke="#B2B2B2" stroke-width="2" stroke-linecap="round"/>
<path d="M305.287 168.578C307.517 167.788 309.94 167.559 312.162 166.859" stroke="#B2B2B2" stroke-width="2" stroke-linecap="round"/>
<path d="M261.458 201.234C261.458 203.424 261.203 205.513 260.905 207.668C260.811 208.343 260.599 210.372 260.599 209.69" stroke="#B2B2B2" stroke-width="2" stroke-linecap="round"/>
<path d="M257.162 200.375C260 201.35 262.869 201.23 265.755 201.23" stroke="#B2B2B2" stroke-width="2" stroke-linecap="round"/>
<path d="M259.74 204.672C262.031 204.672 264.318 204.672 266.615 204.672" stroke="#B2B2B2" stroke-width="2" stroke-linecap="round"/>
<path d="M267.474 202.953C267.474 204.674 266.615 206.452 266.615 208.109" stroke="#B2B2B2" stroke-width="2" stroke-linecap="round"/>
<path d="M267.474 203.747C269.191 203.424 271.044 203.385 272.722 202.988C273.199 202.875 273.534 203.035 273.143 203.462C272.106 204.598 270.441 204.771 268.91 205.37C268.682 205.459 267.854 205.434 267.746 205.686C267.676 205.85 269.322 206.487 269.615 206.603C270.787 207.063 272.136 208.109 273.49 208.109" stroke="#B2B2B2" stroke-width="2" stroke-linecap="round"/>
<path d="M277.456 204.672C276.068 205.092 273.49 205.633 273.49 207.685C273.49 209.366 274.993 208.913 276.203 208.913C277.484 208.913 278.191 208.058 278.499 206.904C278.814 205.726 278.689 205.118 277.456 205.118" stroke="#B2B2B2" stroke-width="2" stroke-linecap="round"/>
<path d="M280.365 209.365C280.432 209.009 281.59 204.144 282.712 204.947C283.443 205.469 283.402 206.548 283.666 207.287C284.052 208.369 284.203 206.765 284.515 206.279C284.924 205.643 285.63 205.082 286.255 204.684C286.552 204.494 287.426 206.563 287.523 206.804C287.932 207.828 288.099 209.577 288.099 210.687" stroke="#B2B2B2" stroke-width="2" stroke-linecap="round"/>
<path d="M293.407 207.25C293.293 207.281 291.932 208.109 292.561 208.109C293.131 208.109 293.648 207.748 294.115 207.465" stroke="#B2B2B2" stroke-width="2" stroke-linecap="round"/>
<path d="M292.396 211.547C292.952 211.102 293.409 210.688 294.115 210.688" stroke="#B2B2B2" stroke-width="2" stroke-linecap="round"/>
<path d="M257.162 221C260.033 221 262.893 221 265.755 221" stroke="#B2B2B2" stroke-width="2" stroke-linecap="round"/>
<path d="M260.599 221C262.533 223.602 260.599 226.138 260.599 228.734" stroke="#B2B2B2" stroke-width="2" stroke-linecap="round"/>
<path d="M268.558 222.719C266.956 223.371 265.755 223.843 265.755 225.964C265.755 227.614 267.103 227.935 268.184 227.867C269.231 227.801 270.052 225.78 270.052 224.733C270.052 224.042 269.858 223.848 269.388 223.49C269.114 223.281 268.845 222.931 268.558 222.768C268.296 222.621 268.386 223.064 268.558 223.166" stroke="#B2B2B2" stroke-width="2" stroke-linecap="round"/>
<path d="M275.208 225.297C275.488 224.97 275.703 224.438 276.068 224.438" stroke="#B2B2B2" stroke-width="2" stroke-linecap="round"/>
<path d="M275.208 229.594C275.801 228.999 276.379 228.502 276.927 227.875" stroke="#B2B2B2" stroke-width="2" stroke-linecap="round"/>
<path d="M303.681 208.867C303.476 210.09 303.552 211.239 303.486 212.464C303.468 212.799 303.27 213.043 303.292 213.411C303.314 213.786 304.723 213.618 304.977 213.642C310.067 214.132 315.081 214.81 320.164 215.347C323.332 215.681 326.579 216.377 329.691 217.051C332.782 217.72 336.029 217.682 339.067 218.481C340.787 218.934 342.889 219.217 344.662 219.281C345.476 219.31 345.483 218.081 345.483 217.387C345.483 216.671 345.677 215.974 345.677 215.304C345.677 214.262 344.901 214.1 343.927 213.79C342.244 213.254 340.237 213.53 338.483 213.18C336.184 212.72 333.71 212.359 331.376 212.044C328.077 211.597 324.858 210.865 321.525 210.613C319.161 210.434 316.631 210.401 314.331 209.813C312.115 209.247 309.647 209.122 307.375 208.719C305.832 208.446 304.209 208.475 302.708 208.109" stroke="#B2B2B2" stroke-width="2" stroke-linecap="round"/>
<path d="M301.377 225.297C301.079 226.73 300.948 228.244 300.495 229.64C300.371 230.026 299.922 231.286 300.245 231.7C301.09 232.786 303.358 232.707 304.557 232.741C308.19 232.845 311.681 233.111 315.295 233.559C319.977 234.139 324.659 234.34 329.332 235.171C332.987 235.82 336.636 236.655 340.298 237.231C341.793 237.465 343.271 237.944 344.773 238.182C345.564 238.307 345.481 236.23 345.481 235.618C345.481 234.676 345.677 233.793 345.677 232.853C345.677 231.702 344.233 231.719 343.369 231.588C338.759 230.889 334.139 230.244 329.517 229.685C326.017 229.262 322.513 228.717 319.019 228.241C316.246 227.864 313.471 227.289 310.699 226.954C308.851 226.73 307.056 226.233 305.2 226.092C303.851 225.989 302.51 225.498 301.181 225.498" stroke="#B2B2B2" stroke-width="2" stroke-linecap="round"/>
<path d="M224.505 232.172C226.25 232.648 228.083 232.879 229.886 232.967C232.204 233.081 234.502 233.506 236.825 233.545C240.144 233.6 243.627 233.96 246.914 234.439C250.436 234.952 254.072 235.13 257.545 235.899C261.064 236.678 264.768 236.635 268.338 237.174C271.147 237.598 273.904 237.708 276.727 237.904C281.09 238.207 285.521 239.052 289.859 239.626C294.446 240.233 299.04 240.758 303.618 241.435C316.434 243.33 329.281 245.025 342.005 247.516C345.034 248.109 348.003 248.732 351.066 249.151C352.814 249.39 354.615 249.583 356.338 249.979C357.072 250.148 357.807 250.219 358.568 250.219" stroke="#B2B2B2" stroke-width="2" stroke-linecap="round"/>
<path d="M229.609 236.653C228.181 236.975 227.589 238.359 227.277 239.766C226.76 242.097 225.334 244.338 225.334 246.792C225.334 247.72 224.797 248.569 224.751 249.495C224.712 250.267 224.77 250.978 224.6 251.743C224.416 252.57 224.557 253.559 224.557 254.402C224.557 255.317 224.416 256.357 224.708 257.234C225.512 259.651 227.62 260.316 229.987 260.877C235.661 262.223 241.646 262.442 247.399 263.417C251.437 264.101 255.908 263.968 259.846 265.168C260.877 265.483 261.892 265.467 262.922 265.655C263.737 265.803 263.655 265.439 264.088 264.757C265.042 263.257 265.209 260.979 265.513 259.266C265.775 257.793 265.773 256.277 265.988 254.791C266.204 253.299 266.506 251.783 266.528 250.273C266.559 248.012 267.24 246.028 267.044 243.773C267.572 242.892 267.092 241.207 266.528 240.847C265.671 240.301 263.264 240.569 262.318 240.336C260.772 239.955 259.332 239.875 257.773 239.582C250.41 238.2 243.027 236.949 235.632 235.831C233.788 235.553 232.196 235.579 230.386 235.68C229.685 235.719 227.854 236.435 228.054 237.237" stroke="#B2B2B2" stroke-width="2" stroke-linecap="round"/>
<path d="M273.207 243.533C272.668 246.326 272.844 249.266 272.234 252.032C271.719 254.363 271.474 256.742 271.109 259.094C270.944 260.164 270.494 265.997 271.942 266.317C274.88 266.965 277.85 267.565 280.882 267.969C286.269 268.688 291.774 269.328 297.185 269.654C299.865 269.816 302.541 270.477 305.207 270.577C306.299 270.618 308.343 271.31 308.915 270.288C309.223 269.737 309.239 268.616 309.401 267.98C309.845 266.243 310.012 264.501 310.266 262.732C310.667 259.947 310.771 257.174 310.947 254.372C311.005 253.454 311.651 250.778 311.045 250.004C311.732 248.07 309.593 247.387 308.915 247.211C306.7 246.636 299.779 245.998 297.552 245.492C293.038 244.466 292.763 245.086 288.277 243.962C285.16 243.181 282 242.736 278.861 242.094C277.413 241.799 274.999 241.382 273.509 241.805C273.258 241.876 273.191 242.248 273.055 242.416C272.749 242.797 272.906 243.251 272.428 243.726" stroke="#B2B2B2" stroke-width="2" stroke-linecap="round"/>
<path d="M315.007 248.696C315.007 253.843 314.186 258.933 313.609 264.038C313.36 266.243 313.072 268.49 313.072 270.709C313.072 271.045 312.908 271.955 313.169 272.165C314.009 272.845 315.571 272.922 316.587 273.132C319.969 273.834 323.53 274.076 326.961 274.512C329.341 274.815 331.747 275.029 334.142 275.11C336.054 275.174 337.977 275.711 339.882 275.925C341.58 276.116 343.292 276.34 344.989 276.566C346.209 276.728 347.361 276.859 348.59 276.859C350.515 276.859 350.42 274.246 350.654 272.752C351.515 267.238 350.997 261.576 352.008 256.084C352.2 255.042 352.608 254.07 352.546 252.998C352.5 252.206 346.051 252.284 344.999 252.118C338.601 251.108 332.295 249.864 325.843 249.271C322.183 248.935 318.489 248.5 314.813 248.5" stroke="#B2B2B2" stroke-width="2" stroke-linecap="round"/>
<path d="M332.787 255.375C332.145 258.828 332.426 262.411 331.556 265.851C331.154 267.44 331.068 269.203 331.068 270.844" stroke="#B2B2B2" stroke-width="2" stroke-linecap="round"/>
<path d="M323.333 262.25C327.603 262.25 331.786 262.602 336.033 263.253C338.072 263.565 340.198 263.969 342.24 263.969" stroke="#B2B2B2" stroke-width="2" stroke-linecap="round"/>
<path d="M279.571 252.141C279.105 252.276 275.994 252.789 276.751 254.087C277.059 254.614 279.176 254.903 279.656 255.594C281.494 258.236 277.86 258.046 276.039 257.912" stroke="#B2B2B2" stroke-width="2" stroke-linecap="round"/>
<path d="M280.653 253.755C282.348 253.88 284.095 254.736 285.845 253.465" stroke="#B2B2B2" stroke-width="2" stroke-linecap="round"/>
<path d="M282.354 254.069C282.793 255.854 282.677 257.458 282.832 259.275" stroke="#B2B2B2" stroke-width="2" stroke-linecap="round"/>
<path d="M288.353 254.511C287.762 256.211 286.992 257.872 286.26 259.527" stroke="#B2B2B2" stroke-width="2" stroke-linecap="round"/>
<path d="M289.21 254.574C289.789 256.943 290.591 259.283 291.276 261.62" stroke="#B2B2B2" stroke-width="2" stroke-linecap="round"/>
<path d="M285.529 257.75C287.134 257.868 288.767 257.989 290.383 258.108C290.792 258.138 291.106 258.161 291.529 258.192" stroke="#B2B2B2" stroke-width="2" stroke-linecap="round"/>
<path d="M293.558 255.883C293.747 258.151 293.244 260.606 293.51 262.811" stroke="#B2B2B2" stroke-width="2" stroke-linecap="round"/>
<path d="M292.488 256.861C293.176 256.701 298.614 256.703 298.3 257.3C297.759 258.327 296.493 258.534 295.421 258.743C295.055 258.815 293.593 259.062 294.006 259.356C294.883 259.982 296.239 260.296 297.27 260.631C298.117 260.906 299.016 261.329 299.91 261.395" stroke="#B2B2B2" stroke-width="2" stroke-linecap="round"/>
<path d="M300.225 257.11C302.192 257.997 304.109 258.258 306.162 258.409" stroke="#B2B2B2" stroke-width="2" stroke-linecap="round"/>
<path d="M303.527 259.076C303.457 260.035 303.386 260.998 303.314 261.974C303.263 262.66 303.191 263.639 303.148 264.219" stroke="#B2B2B2" stroke-width="2" stroke-linecap="round"/>
<path d="M231.679 245.971C231.61 247.056 231.536 248.227 231.465 249.333C231.44 249.736 231.417 250.095 231.392 250.481C231.369 250.85 231.231 253.021 231.243 252.819" stroke="#B2B2B2" stroke-width="2" stroke-linecap="round"/>
<path d="M230.811 246.08C231.94 245.965 233.304 245.991 234.408 246.309C235.391 246.591 235.092 246.7 234.751 247.455C234.451 248.119 233.278 248 232.753 248.208C232.188 248.431 230.368 248.471 230.968 248.51" stroke="#B2B2B2" stroke-width="2" stroke-linecap="round"/>
<path d="M236.77 247.156C236.266 248.724 235.695 250.526 235.585 252.248" stroke="#B2B2B2" stroke-width="2" stroke-linecap="round"/>
<path d="M237.294 246.737C237.422 246.722 240.854 246.114 240.841 247.104C240.83 247.932 239.833 248.35 239.198 248.435C238.549 248.521 237.913 248.649 237.266 248.734C236.531 248.829 236.419 248.975 237.153 249.397C238.462 250.151 239.754 250.953 241.09 251.646C241.744 251.985 242.343 252.483 243.034 252.722" stroke="#B2B2B2" stroke-width="2" stroke-linecap="round"/>
<path d="M243.574 248.555C243.257 249.188 242.806 249.904 242.695 250.617C242.666 250.801 242.733 251 242.552 251.073" stroke="#B2B2B2" stroke-width="2" stroke-linecap="round"/>
<path d="M246.095 249.472C246.772 251.05 248.181 251.828 249.399 252.965C249.543 253.1 250.441 254.442 250.615 253.948C250.896 253.154 250.968 252.323 251.021 251.49C251.038 251.232 250.959 250.468 251.205 250.363" stroke="#B2B2B2" stroke-width="2" stroke-linecap="round"/>
<path d="M252.902 250.766C254.042 250.839 255.142 250.712 256.288 250.561C256.851 250.486 257.569 250.61 258.103 250.236" stroke="#B2B2B2" stroke-width="2" stroke-linecap="round"/>
<path d="M255.475 250.93C255.365 252.664 255.258 254.346 255.148 256.076" stroke="#B2B2B2" stroke-width="2" stroke-linecap="round"/>
<path d="M286.074 281.298C282.279 280.613 277.841 280.264 274.52 282.639C271.996 284.443 271.731 286.486 271.088 289.343C270.359 292.586 272.022 296.267 273.611 298.937C274.577 300.56 276.243 301.153 277.687 302.214C280.273 304.115 283.53 304.359 286.587 304.359C294.625 304.359 301.218 296.307 298.743 288.136C297.419 283.764 293.811 281.404 290.048 279.302C287.735 278.009 283.872 277.217 281.323 278.08" stroke="#B2B2B2" stroke-width="2" stroke-linecap="round"/>
<path d="M230.521 307.797C229.259 309.174 228.042 310.568 226.991 312.094C226.741 312.457 226.606 312.775 226.224 312.953" stroke="#B2B2B2" stroke-width="2" stroke-linecap="round"/>
<path d="M235.677 307.797C234.918 309.963 234.082 311.758 232.94 313.62C232.806 313.839 232.24 314.886 232.24 314.633" stroke="#B2B2B2" stroke-width="2" stroke-linecap="round"/>
<path d="M245.13 308.656C243.864 311.385 242.264 313.785 240.833 316.391" stroke="#B2B2B2" stroke-width="2" stroke-linecap="round"/>
<path d="M255.443 310.375C253.968 312.876 252.154 314.983 250.287 317.25" stroke="#B2B2B2" stroke-width="2" stroke-linecap="round"/>
<path d="M262.318 312.094C261.548 314.184 260.8 316.262 259.644 318.205C259.319 318.751 259.043 319.232 258.88 319.828" stroke="#B2B2B2" stroke-width="2" stroke-linecap="round"/>
<path d="M274.349 315.531C273.418 316.841 272.319 318.809 270.912 319.828" stroke="#B2B2B2" stroke-width="2" stroke-linecap="round"/>
<path d="M282.083 315.531C281.447 317.615 280.772 319.733 279.505 321.547" stroke="#B2B2B2" stroke-width="2" stroke-linecap="round"/>
<path d="M294.115 316.391C293.271 318.102 292.481 320.159 291.187 321.505C290.867 321.838 290.677 321.903 290.677 322.406" stroke="#B2B2B2" stroke-width="2" stroke-linecap="round"/>
<path d="M299.271 317.25C298.397 319.331 297.343 321.307 296.372 323.346C296.173 323.763 296.24 323.946 295.833 324.125" stroke="#B2B2B2" stroke-width="2" stroke-linecap="round"/>
<path d="M306.146 318.969C305.618 321.387 304.32 323.505 303.568 325.844" stroke="#B2B2B2" stroke-width="2" stroke-linecap="round"/>
<path d="M313.88 318.969C313.833 321.417 313.738 324.478 313.021 326.703" stroke="#B2B2B2" stroke-width="2" stroke-linecap="round"/>
<path d="M320.755 321.547C320.224 323.851 319.683 326.161 319.037 328.422" stroke="#B2B2B2" stroke-width="2" stroke-linecap="round"/>
<path d="M331.068 322.406C330.473 324.549 329.223 326.368 328.49 328.422" stroke="#B2B2B2" stroke-width="2" stroke-linecap="round"/>
<path d="M341.38 320.688C340.553 323.518 339.762 327.567 337.943 330.141" stroke="#B2B2B2" stroke-width="2" stroke-linecap="round"/>
<path d="M348.255 323.266C347.472 325.805 346.231 328.39 345.677 331" stroke="#B2B2B2" stroke-width="2" stroke-linecap="round"/>
<path d="M356.849 318.109C356.686 321.742 355.548 325.196 354.271 328.422" stroke="#B2B2B2" stroke-width="2" stroke-linecap="round"/>
<path d="M362.005 308.656L361.146 310.375" stroke="#B2B2B2" stroke-width="2" stroke-linecap="round"/>
<path d="M364.583 294.906C363.293 298.651 362.027 302.472 360.287 306.078" stroke="#B2B2B2" stroke-width="2" stroke-linecap="round"/>
<path d="M365.443 287.172C363.643 289.771 361.429 292.181 359.761 294.855C359.624 295.076 359.427 295.987 359.427 295.716" stroke="#B2B2B2" stroke-width="2" stroke-linecap="round"/>
<path d="M364.583 276.859C363.667 281.012 362.289 285.184 360.287 288.891" stroke="#B2B2B2" stroke-width="2" stroke-linecap="round"/>
<path d="M368.88 261.391C366.419 265.267 363.982 269.272 362.005 273.422" stroke="#B2B2B2" stroke-width="2" stroke-linecap="round"/>
<path d="M369.74 253.656C367.448 256.934 364.674 259.916 362.636 263.369C361.751 264.868 362.056 263.192 362.056 262.3" stroke="#B2B2B2" stroke-width="2" stroke-linecap="round"/>
<path d="M371.458 239.906C369.786 243.417 367.681 246.63 365.958 250.096C365.442 251.133 365.354 251.616 365.517 250.186" stroke="#B2B2B2" stroke-width="2" stroke-linecap="round"/>
<path d="M374.037 231.312C370.544 235.068 366.512 238.745 363.687 242.993C363.586 243.145 362.865 244.878 362.865 243.912" stroke="#B2B2B2" stroke-width="2" stroke-linecap="round"/>
<path d="M374.896 221.859C373.34 224.136 371.74 226.423 370.37 228.831C370.197 229.135 369.979 229.934 369.74 229.432" stroke="#B2B2B2" stroke-width="2" stroke-linecap="round"/>
<path d="M375.755 212.406C374.089 214.52 369.065 220.796 371.06 218.944" stroke="#B2B2B2" stroke-width="2" stroke-linecap="round"/>
<path d="M376.615 204.672C374.562 206.423 372.444 207.939 371.027 210.2C370.575 210.922 370.472 210.803 370.761 210.1" stroke="#B2B2B2" stroke-width="2" stroke-linecap="round"/>
<path d="M379.193 194.359C376.881 196.906 370.42 204.928 372.859 202.501" stroke="#B2B2B2" stroke-width="2" stroke-linecap="round"/>
<path d="M379.193 190.062C377.342 191.523 375.35 192.931 373.998 194.825C373.692 195.253 373.532 195.753 373.177 196.078" stroke="#B2B2B2" stroke-width="2" stroke-linecap="round"/>
<path d="M379.193 182.328C377.942 183.382 376.448 185.1 374.896 185.766" stroke="#B2B2B2" stroke-width="2" stroke-linecap="round"/>
<path d="M380.912 174.594C378.247 176.106 376.38 178.722 374.037 180.609" stroke="#B2B2B2" stroke-width="2" stroke-linecap="round"/>
<path d="M381.771 166C380.179 167.907 378.617 170.267 376.758 171.882C376.321 172.261 375.93 172.3 375.755 172.875" stroke="#B2B2B2" stroke-width="2" stroke-linecap="round"/>
<path d="M383.49 156.547C381.075 158.878 378.499 161.136 376.268 163.609C376.208 163.674 375.755 164.556 375.755 164.195" stroke="#B2B2B2" stroke-width="2" stroke-linecap="round"/>
<path d="M386.068 142.797C383.425 146.252 380.752 149.702 378.226 153.256C377.584 154.159 377.474 154.305 377.474 153.101" stroke="#B2B2B2" stroke-width="2" stroke-linecap="round"/>
<path d="M385.208 138.5C383.212 139.335 381.11 140.182 379.193 141.078" stroke="#B2B2B2" stroke-width="2" stroke-linecap="round"/>
<path d="M384.349 127.328L382.63 129.906" stroke="#B2B2B2" stroke-width="2" stroke-linecap="round"/>
<path d="M387.787 129.906C384.727 132.845 381.86 135.788 379.414 139.2C379.213 139.48 378.333 140.839 378.333 139.883" stroke="#B2B2B2" stroke-width="2" stroke-linecap="round"/>
<path d="M388.646 120.453C385.678 123.967 382.382 127.159 379.401 130.646C378.948 131.176 379.371 129.778 379.401 129.653" stroke="#B2B2B2" stroke-width="2" stroke-linecap="round"/>
<path d="M389.505 113.578C387.183 115.758 384.649 117.76 381.921 119.545C381.439 119.861 382.264 118.546 382.366 118.346" stroke="#B2B2B2" stroke-width="2" stroke-linecap="round"/>
<path d="M390.365 104.984C389.495 105.938 388.076 108.039 386.927 108.422" stroke="#B2B2B2" stroke-width="2" stroke-linecap="round"/>
<path d="M390.365 98.1094C388.518 99.6261 386.784 101.202 384.606 102.328C384.099 102.59 383.672 102.78 383.49 103.266" stroke="#B2B2B2" stroke-width="2" stroke-linecap="round"/>
<path d="M392.943 88.6562C391.149 89.9206 389.396 91.2394 387.607 92.5092C386.352 93.4006 387.289 92.7313 386.94 92.385" stroke="#B2B2B2" stroke-width="2" stroke-linecap="round"/>
<path d="M392.943 78.3438C390.177 81.0066 387.371 83.634 384.772 86.4748C384.388 86.8944 384.245 87.1919 384.428 86.6232" stroke="#B2B2B2" stroke-width="2" stroke-linecap="round"/>
<path d="M395.521 73.1875C393.149 73.9976 390.795 74.8583 388.393 75.6152C387.553 75.8798 387.729 75.7805 388.068 75.4337" stroke="#B2B2B2" stroke-width="2" stroke-linecap="round"/>
<path d="M396.38 59.4375C394.292 62.5117 392.496 65.8704 390.365 68.8906" stroke="#B2B2B2" stroke-width="2" stroke-linecap="round"/>
<path d="M397.24 55.1406C394.829 56.4446 392.347 57.7483 390.007 59.1523C389.526 59.4413 389.407 59.6697 389.582 59.009" stroke="#B2B2B2" stroke-width="2" stroke-linecap="round"/>
<path d="M396.38 46.5469C395.235 48.7387 393.809 50.8371 392.083 52.5625" stroke="#B2B2B2" stroke-width="2" stroke-linecap="round"/>
<path d="M396.38 40.5312C395.006 41.7102 392.947 43.3888 392.083 44.8281" stroke="#B2B2B2" stroke-width="2" stroke-linecap="round"/>
<path d="M245.99 249.359C245.776 250.198 245.515 251.048 245.457 251.894C245.417 252.483 245.13 253.073 245.13 253.656" stroke="#B2B2B2" stroke-width="2" stroke-linecap="round"/>
<path d="M283.025 282.706C279.41 284.389 274.589 287.482 274.589 292.065C274.589 293.124 274.589 294.183 274.589 295.241C274.589 296.313 275.081 297.05 275.292 298.053C275.524 299.156 276.468 300.597 277.167 301.451C278.883 303.548 280.929 304.185 283.493 304.965" stroke="#B2B2B2" stroke-width="2" stroke-linecap="round"/>
<path d="M27.3413 74.7313C24.108 70.9232 19.0845 68.4339 14.7745 66.0737C11.3566 64.202 7.88163 62.4446 4.4078 60.6805C3.2372 60.0861 2.02886 59.5285 1 58.7054" stroke="#B2B2B2" stroke-width="2" stroke-linecap="round"/>
</svg>
