<svg width="70" height="70" viewBox="0 0 70 70" fill="none" xmlns="http://www.w3.org/2000/svg">
<g clip-path="url(#clip0_228_2115)">
<path d="M5.3308 1.82933C5.1499 2.93484 5 4.00179 5 5.11896C5 5.83642 6.16294 5.33648 6.61725 5.31193C9.71394 5.14454 12.8883 4.99298 15.9899 5.17409C28.7275 5.9179 41.4905 6.0441 54.2525 5.96434C56.5573 5.94993 58.8318 5.63354 61.135 5.63354C61.3779 5.63354 62.0493 5.77482 62.0631 5.43138C62.0885 4.79641 62.0631 4.15563 62.0631 3.52009C62.0631 2.89242 61.8977 2.3006 61.8977 1.67312C61.8977 0.991402 59.5468 1.33313 59.0675 1.33313C56.9749 1.33313 54.8758 1.16773 52.8007 1.16773C48.6667 1.16773 44.5294 1.1218 40.3956 1.16773C37.0461 1.20495 33.7378 1.49853 30.3889 1.49853C28.3185 1.49853 26.1465 1.67388 24.0945 1.36989C22.078 1.07115 19.8624 1.16773 17.8185 1.16773C15.7279 1.16773 13.6684 1.00233 11.5793 1.00233C10.2162 1.00233 8.85321 1.00233 7.49019 1.00233C6.79302 1.00233 6.23521 0.950723 5.6616 1.33313" stroke="#B2B2B2" stroke-width="2" stroke-linecap="round"/>
<path d="M5.99241 30.9397C5.99241 32.2061 5.90489 33.4829 5.79025 34.7439C5.72212 35.4934 5.45584 36.5461 5.6708 37.2984C5.70639 37.423 7.13241 36.9448 7.31561 36.8941C9.47702 36.2956 11.8418 36.2843 14.0695 36.2233C16.7162 36.1508 19.3262 35.9017 21.9811 35.9017C24.9522 35.9017 27.9233 35.9017 30.8943 35.9017C35.9763 35.9017 41.0562 36.3979 46.1387 36.3979C52.1008 36.3979 58.0992 37.4013 64.0295 36.5541C64.5462 36.4803 64.1071 33.8881 64.0571 33.5126C64.0031 33.1074 64.0479 32.6726 64.0479 32.2629C64.0479 31.514 61.233 32.0736 60.7491 32.0883C58.1011 32.1686 55.2759 32.3008 52.6353 32.0607C49.9671 31.8182 47.3527 32.0975 44.6961 32.0975C39.1705 32.0975 33.6449 32.0975 28.1193 32.0975C23.1124 32.0975 18.1328 31.4359 13.1414 31.4359C11.9163 31.4359 10.1182 31.7667 8.96961 31.3073C8.52621 31.1299 7.79883 31.2705 7.3248 31.2705C6.87348 31.2705 6.45364 31.1051 5.99241 31.1051" stroke="#B2B2B2" stroke-width="2" stroke-linecap="round"/>
<path d="M8.9696 30.9398C8.9696 29.6334 9.17961 28.3646 9.26365 27.0621C9.39165 25.0781 9.22856 23.0838 9.30959 21.0985C9.42129 18.3619 9.63121 15.6541 9.63121 12.9111C9.63121 11.0366 9.63121 9.16208 9.63121 7.28754C9.63121 6.62594 9.63121 5.96434 9.63121 5.30274C9.63121 4.82489 9.39265 4.04872 9.96201 4.47574" stroke="#B2B2B2" stroke-width="2" stroke-linecap="round"/>
<path d="M61.8977 32.0975C61.8069 26.7396 60.7989 21.4248 60.7399 16.0537C60.7017 12.5835 60.5745 9.11354 60.5745 5.63348" stroke="#B2B2B2" stroke-width="2" stroke-linecap="round"/>
<path d="M17.2397 13.7381C16.8107 15.7874 16.5781 17.7608 16.5781 19.8579C16.5781 20.4919 16.4737 21.2252 16.6148 21.8427C16.7538 22.4508 17.0743 23.0257 17.0743 23.6621C17.0743 24.4508 18.1147 24.0311 18.8018 23.9837C20.039 23.8984 21.2756 23.7666 22.5141 23.6713C24.0247 23.5551 25.7912 23.5295 27.2556 23.8643C27.7364 23.9742 28.4671 24.2464 28.4869 23.4967C28.5228 22.1327 28.4869 20.763 28.4869 19.3985C28.4869 18.8568 28.6931 13.5727 28.055 13.5727C25.8281 13.5727 23.6256 14.0989 21.3747 13.8943C20.4032 13.806 19.4677 13.7381 18.4893 13.7381C18.1195 13.7381 16.9716 13.7381 18.0667 13.7381" stroke="#B2B2B2" stroke-width="2" stroke-linecap="round"/>
<path d="M37.7493 14.069C42.7698 14.069 47.7832 13.9036 52.8007 13.9036" stroke="#B2B2B2" stroke-width="2" stroke-linecap="round"/>
<path d="M37.5839 17.0461C43.0288 18.0141 48.6322 17.3769 54.1239 17.3769" stroke="#B2B2B2" stroke-width="2" stroke-linecap="round"/>
<path d="M36.0953 21.1811C40.9026 21.5903 45.727 21.0157 50.5403 21.0157C51.7348 21.0157 52.9294 21.0157 54.124 21.0157" stroke="#B2B2B2" stroke-width="2" stroke-linecap="round"/>
<path d="M39.2379 25.3162C41.8419 25.3162 44.4532 25.4016 47.0485 25.1876C48.0485 25.1051 49.1655 24.9854 50.1543 24.9854C50.9711 24.9854 51.6326 24.82 52.4699 24.82" stroke="#B2B2B2" stroke-width="2" stroke-linecap="round"/>
<path d="M27.329 36.3979C26.2707 37.4874 25.4883 38.7078 24.5264 39.8622C24.0312 40.4563 23.6919 41.1398 23.1021 41.654C22.5178 42.1633 21.8739 42.7878 21.3746 43.3815C19.5561 45.544 17.2409 47.3244 15.512 49.5473C15.0526 50.138 16.3389 49.9608 16.6147 49.9608C17.7878 49.9608 18.9609 49.9608 20.1341 49.9608C21.4049 49.9608 21.7067 48.7281 22.4956 47.9392C22.9609 47.4739 23.2532 46.8305 23.6902 46.3311C24.2515 45.6896 25.1039 45.3168 25.6382 44.668C26.0589 44.1572 26.6797 43.701 27.2279 43.3356C27.7773 42.9693 28.318 42.0249 28.8176 41.5253C29.84 40.5029 30.6249 39.2349 31.5559 38.1346C32.1979 37.3758 32.8101 36.3095 33.7796 36.0671" stroke="#B2B2B2" stroke-width="2" stroke-linecap="round"/>
<path d="M38.4109 36.8942C39.0861 40.0454 40.8209 42.973 41.7556 46.0647C42.4193 48.26 43.2527 50.3655 44.0345 52.5154C44.1733 52.897 45.2452 55.2353 45.4496 55.2353C45.8515 55.2353 46.3892 54.9491 46.8095 54.8861C47.3722 54.8017 47.9483 54.6933 48.5003 54.5553C48.7611 54.4901 49.8235 54.301 49.8235 53.9304C49.8235 53.5108 49.1151 52.679 48.9138 52.2764C48.3868 51.2224 47.9217 50.1231 47.3425 49.0971C46.3694 47.3733 45.3176 45.6753 44.6042 43.841C43.6683 41.4345 42.2151 39.3936 42.2151 36.7288" stroke="#B2B2B2" stroke-width="2" stroke-linecap="round"/>
</g>
<defs>
<clipPath id="clip0_228_2115">
<rect width="70" height="70" fill="white"/>
</clipPath>
</defs>
</svg>
