<svg width="70" height="70" viewBox="0 0 70 70" fill="none" xmlns="http://www.w3.org/2000/svg">
<path d="M44.0711 7.64131C39.2923 15.0115 32.2935 20.5546 26.6821 27.2501C25.1862 29.0349 23.2608 30.8553 21.9945 32.7995C20.5032 35.089 18.1883 36.6283 16.2153 38.4514C14.5883 39.9548 11.6117 41.6527 10.7314 43.6291C10.3088 44.5782 9.76453 45.4891 9.44718 46.5256C8.63206 49.1878 6.69457 51.5068 5.94112 54.1384C5.67862 55.0553 7.17407 53.925 7.54646 53.7283C8.96392 52.9794 10.637 52.966 12.1698 52.6261C14.8237 52.0376 18.5289 52.2304 19.9782 49.6271C21.4306 47.0182 23.9337 44.6416 26.2711 42.8089C27.6457 41.7311 29.3091 40.1596 30.3808 38.7846C32.0158 36.6868 34.1083 35.0513 35.8004 33.0173C41.6912 25.9363 47.7717 18.9262 53.4205 11.6784C54.6153 10.1454 53.6992 8.4423 52.1619 7.59004C51.0794 6.98987 50.1232 6.25716 48.81 6.25716C48.4185 6.25716 46.0479 6.20153 46.2672 6.02647C46.8227 5.58293 47.0666 4.48012 47.5386 3.95025C48.0585 3.36653 48.7819 2.42615 49.1568 1.7715C50.007 0.286695 54.0857 1.31154 55.1671 1.82276C56.3417 2.37799 57.4788 5.02608 57.4788 6.26997C57.4788 7.57545 57.6782 7.82378 56.5541 8.38464C55.8741 8.72395 54.9611 9.18084 54.7048 9.94822" stroke="#B2B2B2" stroke-width="2" stroke-linecap="round"/>
<path d="M11.6418 43.7114C12.7846 42.4678 14.7352 40.8117 14.7352 43.5912C14.7352 44.1794 17.0206 42.3774 17.3989 43.8183C17.5743 44.4862 17.7837 44.8535 17.8286 45.6352C17.8425 45.8781 18.4372 45.3741 18.6019 45.2745C18.9026 45.0927 19.4772 44.9332 19.8172 44.9138C21.5942 44.812 21.1429 47.5532 21.1429 48.7612" stroke="#B2B2B2" stroke-width="2" stroke-linecap="round"/>
<path d="M17.3732 45.8955C18.2008 45.0345 19.3837 43.8756 20.0247 42.8687C20.5656 42.0191 21.3397 41.8901 21.9846 41.2388C23.3366 39.8735 24.8915 38.5361 26.2502 37.1642C29.7737 33.606 32.183 28.974 35.6395 25.3542C37.1678 23.7538 38.8104 22.2815 40.3278 20.7492C41.9894 19.0714 43.8765 17.2037 45.7334 15.7303C47.0944 14.6505 47.8741 12.7667 49.0767 11.5522C49.9034 10.7175 50.3273 9.60851 50.806 8.64178" stroke="#B2B2B2" stroke-width="2" stroke-linecap="round"/>
<path d="M48.8955 7.68655C46.856 8.88541 45.2004 10.2657 43.293 11.6422C41.4439 12.9765 40.2671 15.091 38.7638 16.7612C37.5094 18.1548 36.6016 19.8272 35.2295 21.1822C33.5969 22.7944 32.0473 24.5831 30.3992 26.2107C28.5731 28.014 26.6588 29.8251 24.993 31.7692C23.6474 33.3397 22.496 35.6032 20.8565 36.8753C19.4226 37.9879 18.4176 39.7181 16.9688 40.8309C15.9701 41.598 13.9612 42.7734 13.5522 43.9851" stroke="#B2B2B2" stroke-width="2" stroke-linecap="round"/>
<path d="M6.86572 50.6716C9.01549 50.6716 10.6866 51.4967 10.6866 53.5373" stroke="#B2B2B2" stroke-width="2" stroke-linecap="round"/>
<path d="M6.09121 55.8792C5.39174 56.8415 3.64665 58.6101 4.06352 60.0333C4.65938 62.0675 12.813 58.634 14.048 58.3457C17.4423 57.5534 20.7214 56.4902 24.1864 55.9831C25.2242 55.8312 30.4578 54.664 30.7572 56.3466C31.3815 59.8549 28.9194 63.2401 28.7423 66.7317C28.6963 67.639 28.4166 68.9107 29.6792 68.6269C33.2207 67.8309 36.8351 66.5759 40.2797 65.4335C45.2252 63.7933 49.865 61.145 54.9612 59.9554C56.8074 59.5244 59.2737 59.2657 60.7362 60.7862C62.5568 62.6789 60.7875 66.5062 63.0206 68.3543C64.3502 69.4547 66.5302 68.2635 68 68.2635" stroke="#B2B2B2" stroke-width="2" stroke-linecap="round"/>
</svg>
