<svg width="70" height="70" viewBox="0 0 70 70" fill="none" xmlns="http://www.w3.org/2000/svg">
<g clip-path="url(#clip0_219_1793)">
<path d="M23.5 4.5C20.9776 8.67215 15.5299 11.5332 12.1182 14.7283C9.90213 16.8037 6.33274 18.3151 4.79672 20.9487C4.3623 21.6935 3.69014 21.7647 4.16007 22.5941C4.66705 23.4889 4.83756 24.1866 4.87631 25.2026C4.98029 27.9294 5.59254 30.8312 5.59254 33.6102C5.59254 36.8612 6.24636 40.4909 6.64699 43.7234C6.77018 44.7173 6.27186 46.411 6.74647 47.3151C7.22443 48.2257 10.3442 49.3836 11.3224 49.4822C12.6494 49.6161 13.5634 50.4939 14.7444 50.927C16.2731 51.4876 18.2813 52.2321 19.6386 53.0941C22.0569 54.6297 24.4531 55.8764 26.9004 57.2477C28.3637 58.0676 30.4485 61 32.2921 61C33.9965 61 35.6754 58.7114 36.7486 57.6289C39.2277 55.1286 43.0028 52.9618 46.0596 51.2882C49.23 49.5524 52.1783 47.4875 55.0324 45.3286C56.0561 44.5543 57.2119 43.7576 58.156 42.9007C58.5064 42.5826 57.9623 41.8347 57.6984 41.3556C55.9105 38.1099 55.1475 32.9306 55.0125 29.2559C54.9193 26.7164 54.2082 24.2142 53.9581 21.6911C53.7642 19.7351 54.0744 17.8269 53.6597 15.8921C53.3423 14.4115 54.3084 12.5902 52.645 12.0796C49.3147 11.0573 45.9883 10.1433 42.6376 9.19013C39.7248 8.36151 36.7685 7.17207 34.0827 5.77895C33.005 5.21998 31.6819 4.26211 30.4816 3.99309C29.4387 3.75934 27.0093 3.70309 26 3.25066C25.0117 2.80767 25.9769 3.92328 26.5 3C27.0879 1.9623 33.5963 0 34.779 0C35.8886 0 36.9691 0.851991 37.9026 1.44474C39.1905 2.2626 41.0451 2.75967 42.4785 3.25066C46.3583 4.57963 50.4678 5.25317 54.3759 6.42105C55.3302 6.70623 56.3344 7.384 57.3204 7.5648C58.2389 7.73323 59.652 7.90027 58.4146 8.68849C57.6717 9.16175 56.0931 9.71319 55.6492 10.4743C55.0433 11.5132 56.0575 11.5342 56.9822 11.0161C57.7358 10.5938 58.6819 10.7485 59.3895 10.1934C59.6777 9.96736 59.668 12.7426 59.668 13.0026C59.668 20.0094 61.8686 26.7699 62.8911 33.7306C63.3219 36.6632 65 39.8832 65 42.7803C65 43.1163 59.6209 43.7033 61.1005 43.7033C61.7522 43.7033 63.2492 43.3588 63.2492 44.2451C63.2492 45.4672 61.6413 46.1693 60.7424 46.673C57.5324 48.4717 53.8639 50.0001 50.8743 52.2112C49.2468 53.415 47.9207 55.2398 46.3382 56.3447C45.3267 57.051 43.8322 57.5472 43.1947 58.6724C42.9977 59.02 41.4058 60.2996 41.046 60.3178C37.7675 60.4831 34.3336 59.9566 31.0188 59.9566" stroke="#B2B2B2" stroke-width="2" stroke-linecap="round"/>
<path d="M34.668 18.4589C31.2794 18.3843 27.1374 17.2267 23.9534 18.9018C21.8093 20.0299 20.6627 22.0059 19.1701 23.7336C16.1186 27.2654 14.7441 36.0037 17.4481 39.92C21.3856 45.6229 30.1104 45.6376 36.5814 45.6376C39.1766 45.6376 41.1958 42.9092 42.5127 41.1078C44.4249 38.4922 45 34.9601 45 31.8671C45 27.6356 42.252 21.0647 37.3679 19.9084C31.5283 18.5259 27.5132 21.031 25.1014 25.8676C23.0263 30.029 23.1178 35.1468 24.7187 39.316C26.6087 44.2379 30.9567 46 36.1987 46" stroke="#B2B2B2" stroke-width="2" stroke-linecap="round"/>
</g>
<defs>
<clipPath id="clip0_219_1793">
<rect width="70" height="70" fill="white"/>
</clipPath>
</defs>
</svg>
