<svg width="70" height="70" viewBox="0 0 70 70" fill="none" xmlns="http://www.w3.org/2000/svg">
<path d="M25.6482 1.93614C33.1327 1.83824 40.6103 1.0541 48.097 1.0541C48.7644 1.0541 50 0.772264 50 1.49512C50 2.01194 49.5952 2.57868 49.3161 3.03868C47.9238 5.3333 46.2008 7.66876 45.4656 10.193C45.2838 10.8171 43.3732 15.1667 42.6261 15.1667C41.8937 15.1667 41.3105 14.7907 40.619 14.6399C39.7277 14.4455 38.7516 14.405 37.839 14.2846C36.0885 14.0538 34.3849 14.0641 32.6059 14.0641C32.0932 14.0641 29.1611 14.753 29.0081 14.5909C28.4194 13.9672 28.9095 12.2455 28.6513 11.418C28.0851 9.60353 27.0888 7.86421 26.3915 6.0768C26.1773 5.52754 25.6482 4.82112 25.6482 4.25148C25.6482 4.03394 25.5818 2.92918 25.9158 3.4797" stroke="#B2B2B2" stroke-width="2" stroke-linecap="round"/>
<path d="M30.8643 14.375C29.3518 15.0897 27.87 15.6487 27.87 17.1174C27.87 19.2241 27.2826 21.4203 26.7812 23.4929C26.1168 26.239 24.8379 28.8827 24.1952 31.6497C23.6021 34.2034 22.5964 36.6952 21.7302 39.1971C20.8652 41.6958 20.2512 44.2374 19.5677 46.768C19.2912 47.7917 19.1594 48.7716 19.1594 49.8151C19.1594 50.0648 19.3215 50.685 19.0233 50.8699C18.3202 51.3058 33.7726 66.9209 34.8869 67.9571C35.7065 68.7193 36.6102 69.7549 36.8378 68.1681C36.995 67.0715 37.8907 65.7866 38.5012 64.7811C40.2463 61.9073 42.1635 58.6434 44.7318 56.1554C46.1279 54.803 47.8623 53.0846 48.7695 51.5028C49.0057 51.0909 48.83 50.3478 48.83 49.9089C48.83 48.0845 48.83 46.2602 48.83 44.4358C48.83 35.6367 47.6768 26.1966 43.7186 17.9143C43.0061 16.4235 41.9981 12.4764 39.1666 12.4764C37.4659 12.4764 36.1469 12.0214 34.6752 12.7342C33.6498 13.2309 33.2269 15.1174 33.8586 15.8517" stroke="#B2B2B2" stroke-width="2" stroke-linecap="round"/>
<path d="M31.8464 20.4736C31.7248 21.0501 31.4319 21.6547 31.4319 22.2418" stroke="#B2B2B2" stroke-width="2" stroke-linecap="round"/>
<path d="M40.552 22.4187C40.8606 22.8794 41.1738 23.2936 41.1738 23.8332" stroke="#B2B2B2" stroke-width="2" stroke-linecap="round"/>
<path d="M35.1628 27.8998C35.1498 28.4461 34.9556 28.9617 34.9556 29.4912" stroke="#B2B2B2" stroke-width="2" stroke-linecap="round"/>
<path d="M28.1155 35.1493C28.1032 35.5782 28.0662 35.9826 27.9082 36.387" stroke="#B2B2B2" stroke-width="2" stroke-linecap="round"/>
<path d="M40.7593 35.8565C40.8825 36.5135 41.0229 37.1577 41.1738 37.8014" stroke="#B2B2B2" stroke-width="2" stroke-linecap="round"/>
<path d="M33.7119 40.9842C33.7119 41.8336 33.6993 42.6294 33.5046 43.4596" stroke="#B2B2B2" stroke-width="2" stroke-linecap="round"/>
<path d="M26.8718 47.3495C26.7488 47.8875 26.6118 48.4135 26.4573 48.9408" stroke="#B2B2B2" stroke-width="2" stroke-linecap="round"/>
<path d="M40.3447 47.3495C40.5088 48.0028 40.9665 48.8408 40.9665 49.4713" stroke="#B2B2B2" stroke-width="2" stroke-linecap="round"/>
<path d="M33.7119 53.8917C33.7119 54.7945 33.9192 55.6548 33.9192 56.5439" stroke="#B2B2B2" stroke-width="2" stroke-linecap="round"/>
<path d="M39.7229 58.8424C39.9367 59.3097 40.1614 59.7876 40.3447 60.2569" stroke="#B2B2B2" stroke-width="2" stroke-linecap="round"/>
<path d="M27.2864 57.4279C27.0011 58.0667 26.708 58.7312 26.4573 59.3729" stroke="#B2B2B2" stroke-width="2" stroke-linecap="round"/>
<path d="M47.5994 41.3378C47.502 41.3981 46.1484 42.2403 46.1484 42.045" stroke="#B2B2B2" stroke-width="2" stroke-linecap="round"/>
<path d="M21.4827 41.6915C22.0537 41.7984 22.5179 41.8673 22.9336 42.2219" stroke="#B2B2B2" stroke-width="2" stroke-linecap="round"/>
<path d="M28.9446 8.45026C29.1948 8.15673 29.6271 7.36346 29.981 7.21255" stroke="#B2B2B2" stroke-width="2" stroke-linecap="round"/>
<path d="M34.3337 3.14587C34.9564 3.46973 35.6807 3.76441 36.1992 4.20675" stroke="#B2B2B2" stroke-width="2" stroke-linecap="round"/>
<path d="M36.4064 8.27345C36.9019 8.36624 37.3824 8.49203 37.8573 8.62707" stroke="#B2B2B2" stroke-width="2" stroke-linecap="round"/>
<path d="M44.9048 5.26764C45.423 5.48415 45.9679 5.79808 46.563 5.79808" stroke="#B2B2B2" stroke-width="2" stroke-linecap="round"/>
</svg>
