<svg width="213" height="17" viewBox="0 0 213 17" fill="none" xmlns="http://www.w3.org/2000/svg">
<path d="M20.5 1C31.5 2 30.5 2 36.5 2.50005C43.2963 3.06647 46.0888 3.17412 50 3.50005C68 5.00005 80.8529 5.9125 96.0242 7.30212C123.628 9.83047 151.236 13.4908 178.92 12.8986C189.195 12.6788 199.448 11.5792 209.727 11.6516C210.442 11.6566 212.549 11.6156 211.865 11.9253C210.236 12.6632 207.982 12.1843 206.338 12.1991C189.349 12.3519 172.378 14.4721 155.386 13.8719C129.61 12.9615 103.74 8.9377 77.945 11.0128C71.3178 11.546 64.7003 12.4808 58.0786 13.1571C55.9829 13.3712 53.7905 13.5863 51.7457 14.389C51.5393 14.47 52.1325 14.6892 52.3449 14.7236C55.089 15.1675 57.863 15.2466 60.62 15.3319C85.7528 16.1096 110.95 15.078 136.046 13.1419C150.871 11.9983 165.679 10.7332 180.469 8.85333C184.103 8.39156 188.466 8.59897 192.02 6.90672C192.345 6.75177 191.349 6.68692 191.007 6.66339C187.034 6.38975 183.052 6.38168 179.075 6.31361C128.125 5.44151 77.158 6.42007 26.2076 6.42007C19.2927 6.42007 12.1592 5.44042 5.339 7.68232C3.89326 8.15756 2.28478 8.87436 1 10.0091" stroke="#B3B3B3" stroke-width="1.5" stroke-linecap="round"/>
</svg>
